<mxfile host="app.diagrams.net" modified="2023-12-11T12:01:25.451Z" agent="Mozilla/5.0 (Windows NT 10.0; Win64; x64) AppleWebKit/537.36 (KHTML, like Gecko) Chrome/119.0.0.0 Safari/537.36" etag="OUC5TEr5MoKfeFhuJ27H" version="22.1.7" type="github" pages="4">
  <diagram name="客户端" id="13e1069c-82ec-6db2-03f1-153e76fe0fe0">
    <mxGraphModel dx="1434" dy="746" grid="1" gridSize="10" guides="1" tooltips="1" connect="1" arrows="1" fold="1" page="1" pageScale="1" pageWidth="1100" pageHeight="850" background="none" math="0" shadow="0">
      <root>
        <mxCell id="0" />
        <mxCell id="1" parent="0" />
        <mxCell id="7baba1c4bc27f4b0-40" value="Note" style="shape=note;whiteSpace=wrap;html=1;size=14;verticalAlign=top;align=left;spacingTop=-6;rounded=0;shadow=0;comic=0;labelBackgroundColor=none;strokeWidth=1;fontFamily=Verdana;fontSize=12" parent="1" vertex="1">
          <mxGeometry x="100" y="30" width="100" height="35" as="geometry" />
        </mxCell>
        <mxCell id="7baba1c4bc27f4b0-41" value="Note" style="shape=note;whiteSpace=wrap;html=1;size=14;verticalAlign=top;align=left;spacingTop=-6;rounded=0;shadow=0;comic=0;labelBackgroundColor=none;strokeWidth=1;fontFamily=Verdana;fontSize=12" parent="1" vertex="1">
          <mxGeometry x="240" y="30" width="100" height="35" as="geometry" />
        </mxCell>
        <mxCell id="7baba1c4bc27f4b0-42" value="Note" style="shape=note;whiteSpace=wrap;html=1;size=14;verticalAlign=top;align=left;spacingTop=-6;rounded=0;shadow=0;comic=0;labelBackgroundColor=none;strokeWidth=1;fontFamily=Verdana;fontSize=12" parent="1" vertex="1">
          <mxGeometry x="400" y="30" width="100" height="35" as="geometry" />
        </mxCell>
        <mxCell id="7baba1c4bc27f4b0-43" value="Note" style="shape=note;whiteSpace=wrap;html=1;size=14;verticalAlign=top;align=left;spacingTop=-6;rounded=0;shadow=0;comic=0;labelBackgroundColor=none;strokeWidth=1;fontFamily=Verdana;fontSize=12" parent="1" vertex="1">
          <mxGeometry x="540" y="30" width="100" height="35" as="geometry" />
        </mxCell>
        <mxCell id="7baba1c4bc27f4b0-44" value="Note" style="shape=note;whiteSpace=wrap;html=1;size=14;verticalAlign=top;align=left;spacingTop=-6;rounded=0;shadow=0;comic=0;labelBackgroundColor=none;strokeWidth=1;fontFamily=Verdana;fontSize=12" parent="1" vertex="1">
          <mxGeometry x="680" y="30" width="100" height="35" as="geometry" />
        </mxCell>
        <mxCell id="7baba1c4bc27f4b0-45" value="Note" style="shape=note;whiteSpace=wrap;html=1;size=14;verticalAlign=top;align=left;spacingTop=-6;rounded=0;shadow=0;comic=0;labelBackgroundColor=none;strokeWidth=1;fontFamily=Verdana;fontSize=12" parent="1" vertex="1">
          <mxGeometry x="820" y="30" width="100" height="35" as="geometry" />
        </mxCell>
        <mxCell id="7baba1c4bc27f4b0-46" value="Note" style="shape=note;whiteSpace=wrap;html=1;size=14;verticalAlign=top;align=left;spacingTop=-6;rounded=0;shadow=0;comic=0;labelBackgroundColor=none;strokeWidth=1;fontFamily=Verdana;fontSize=12" parent="1" vertex="1">
          <mxGeometry x="960" y="30" width="100" height="35" as="geometry" />
        </mxCell>
        <mxCell id="mRc1NS2iaqrwV8b89fMp-1" value="alt" style="shape=umlFrame;whiteSpace=wrap;html=1;pointerEvents=0;fillColor=#ffe6cc;strokeColor=#d79b00;" vertex="1" parent="1">
          <mxGeometry x="230" y="1071" width="970" height="280" as="geometry" />
        </mxCell>
        <mxCell id="mRc1NS2iaqrwV8b89fMp-2" value="UploadManageService" style="shape=umlLifeline;perimeter=lifelinePerimeter;whiteSpace=wrap;html=1;container=1;dropTarget=0;collapsible=0;recursiveResize=0;outlineConnect=0;portConstraint=eastwest;newEdgeStyle={&quot;curved&quot;:0,&quot;rounded&quot;:0};" vertex="1" parent="1">
          <mxGeometry x="50" y="180" width="140" height="1340" as="geometry" />
        </mxCell>
        <mxCell id="mRc1NS2iaqrwV8b89fMp-3" value="" style="html=1;points=[[0,0,0,0,5],[0,1,0,0,-5],[1,0,0,0,5],[1,1,0,0,-5]];perimeter=orthogonalPerimeter;outlineConnect=0;targetShapes=umlLifeline;portConstraint=eastwest;newEdgeStyle={&quot;curved&quot;:0,&quot;rounded&quot;:0};" vertex="1" parent="mRc1NS2iaqrwV8b89fMp-2">
          <mxGeometry x="65" y="70" width="10" height="1170" as="geometry" />
        </mxCell>
        <mxCell id="mRc1NS2iaqrwV8b89fMp-4" value="ApiServer" style="shape=umlLifeline;perimeter=lifelinePerimeter;whiteSpace=wrap;html=1;container=1;dropTarget=0;collapsible=0;recursiveResize=0;outlineConnect=0;portConstraint=eastwest;newEdgeStyle={&quot;curved&quot;:0,&quot;rounded&quot;:0};" vertex="1" parent="1">
          <mxGeometry x="1125" y="180" width="115.5" height="1300" as="geometry" />
        </mxCell>
        <mxCell id="mRc1NS2iaqrwV8b89fMp-5" value="" style="html=1;points=[[0,0,0,0,5],[0,1,0,0,-5],[1,0,0,0,5],[1,1,0,0,-5]];perimeter=orthogonalPerimeter;outlineConnect=0;targetShapes=umlLifeline;portConstraint=eastwest;newEdgeStyle={&quot;curved&quot;:0,&quot;rounded&quot;:0};" vertex="1" parent="mRc1NS2iaqrwV8b89fMp-4">
          <mxGeometry x="52.5" y="70" width="10" height="72" as="geometry" />
        </mxCell>
        <mxCell id="mRc1NS2iaqrwV8b89fMp-6" value="" style="html=1;points=[[0,0,0,0,5],[0,1,0,0,-5],[1,0,0,0,5],[1,1,0,0,-5]];perimeter=orthogonalPerimeter;outlineConnect=0;targetShapes=umlLifeline;portConstraint=eastwest;newEdgeStyle={&quot;curved&quot;:0,&quot;rounded&quot;:0};" vertex="1" parent="mRc1NS2iaqrwV8b89fMp-4">
          <mxGeometry x="52.5" y="339" width="10" height="851" as="geometry" />
        </mxCell>
        <mxCell id="mRc1NS2iaqrwV8b89fMp-9" value="获取需文件上传列表&lt;br&gt;GetUploadList" style="html=1;verticalAlign=bottom;endArrow=block;curved=0;rounded=0;entryX=0;entryY=0;entryDx=0;entryDy=5;entryPerimeter=0;exitX=1;exitY=0;exitDx=0;exitDy=5;exitPerimeter=0;" edge="1" parent="1" source="mRc1NS2iaqrwV8b89fMp-3" target="mRc1NS2iaqrwV8b89fMp-5">
          <mxGeometry x="-0.0005" width="80" relative="1" as="geometry">
            <mxPoint x="130" y="260" as="sourcePoint" />
            <mxPoint x="210" y="260" as="targetPoint" />
            <mxPoint as="offset" />
          </mxGeometry>
        </mxCell>
        <mxCell id="mRc1NS2iaqrwV8b89fMp-10" value="UploadFileService" style="shape=umlLifeline;perimeter=lifelinePerimeter;whiteSpace=wrap;html=1;container=1;dropTarget=0;collapsible=0;recursiveResize=0;outlineConnect=0;portConstraint=eastwest;newEdgeStyle={&quot;curved&quot;:0,&quot;rounded&quot;:0};" vertex="1" parent="1">
          <mxGeometry x="240" y="180" width="140" height="1340" as="geometry" />
        </mxCell>
        <mxCell id="mRc1NS2iaqrwV8b89fMp-11" value="" style="html=1;points=[[0,0,0,0,5],[0,1,0,0,-5],[1,0,0,0,5],[1,1,0,0,-5]];perimeter=orthogonalPerimeter;outlineConnect=0;targetShapes=umlLifeline;portConstraint=eastwest;newEdgeStyle={&quot;curved&quot;:0,&quot;rounded&quot;:0};" vertex="1" parent="mRc1NS2iaqrwV8b89fMp-10">
          <mxGeometry x="65" y="170" width="10" height="1060" as="geometry" />
        </mxCell>
        <mxCell id="mRc1NS2iaqrwV8b89fMp-12" value="" style="html=1;points=[[0,0,0,0,5],[0,1,0,0,-5],[1,0,0,0,5],[1,1,0,0,-5]];perimeter=orthogonalPerimeter;outlineConnect=0;targetShapes=umlLifeline;portConstraint=eastwest;newEdgeStyle={&quot;curved&quot;:0,&quot;rounded&quot;:0};" vertex="1" parent="mRc1NS2iaqrwV8b89fMp-10">
          <mxGeometry x="70" y="909" width="10" height="242" as="geometry" />
        </mxCell>
        <mxCell id="mRc1NS2iaqrwV8b89fMp-13" value="文件识别&lt;br&gt;Fileidentify()" style="html=1;align=left;spacingLeft=2;endArrow=block;rounded=0;edgeStyle=orthogonalEdgeStyle;curved=0;rounded=0;" edge="1" parent="mRc1NS2iaqrwV8b89fMp-10">
          <mxGeometry relative="1" as="geometry">
            <mxPoint x="75" y="898" as="sourcePoint" />
            <Array as="points">
              <mxPoint x="105" y="928" />
            </Array>
            <mxPoint x="80" y="928" as="targetPoint" />
          </mxGeometry>
        </mxCell>
        <mxCell id="mRc1NS2iaqrwV8b89fMp-14" value="文件上传&lt;br&gt;Upload()" style="html=1;verticalAlign=bottom;endArrow=block;curved=0;rounded=0;entryX=0;entryY=0;entryDx=0;entryDy=5;entryPerimeter=0;" edge="1" parent="1" source="mRc1NS2iaqrwV8b89fMp-3" target="mRc1NS2iaqrwV8b89fMp-11">
          <mxGeometry width="80" relative="1" as="geometry">
            <mxPoint x="140" y="350" as="sourcePoint" />
            <mxPoint x="220" y="350" as="targetPoint" />
          </mxGeometry>
        </mxCell>
        <mxCell id="mRc1NS2iaqrwV8b89fMp-15" value="atl" style="shape=umlFrame;whiteSpace=wrap;html=1;pointerEvents=0;fillColor=#ffe6cc;strokeColor=#d79b00;" vertex="1" parent="1">
          <mxGeometry x="230" y="380" width="970" height="200" as="geometry" />
        </mxCell>
        <mxCell id="mRc1NS2iaqrwV8b89fMp-16" value="【文件目录&lt;span style=&quot;background-color: rgb(255, 255, 255);&quot;&gt;】&lt;/span&gt;" style="text;html=1;align=center;verticalAlign=middle;resizable=0;points=[];autosize=1;strokeColor=none;fillColor=none;" vertex="1" parent="1">
          <mxGeometry x="210" y="408" width="100" height="30" as="geometry" />
        </mxCell>
        <mxCell id="mRc1NS2iaqrwV8b89fMp-17" value="FolderParserService" style="shape=umlLifeline;perimeter=lifelinePerimeter;whiteSpace=wrap;html=1;container=1;dropTarget=0;collapsible=0;recursiveResize=0;outlineConnect=0;portConstraint=eastwest;newEdgeStyle={&quot;curved&quot;:0,&quot;rounded&quot;:0};" vertex="1" parent="1">
          <mxGeometry x="450" y="180" width="140" height="1330" as="geometry" />
        </mxCell>
        <mxCell id="mRc1NS2iaqrwV8b89fMp-18" value="" style="html=1;points=[[0,0,0,0,5],[0,1,0,0,-5],[1,0,0,0,5],[1,1,0,0,-5]];perimeter=orthogonalPerimeter;outlineConnect=0;targetShapes=umlLifeline;portConstraint=eastwest;newEdgeStyle={&quot;curved&quot;:0,&quot;rounded&quot;:0};" vertex="1" parent="mRc1NS2iaqrwV8b89fMp-17">
          <mxGeometry x="65" y="200" width="10" height="180" as="geometry" />
        </mxCell>
        <mxCell id="mRc1NS2iaqrwV8b89fMp-21" value="解析文件目录&lt;br&gt;FolderParser()" style="html=1;verticalAlign=bottom;endArrow=block;curved=0;rounded=0;" edge="1" parent="1">
          <mxGeometry width="80" relative="1" as="geometry">
            <mxPoint x="315" y="414" as="sourcePoint" />
            <mxPoint x="515" y="414" as="targetPoint" />
            <mxPoint as="offset" />
          </mxGeometry>
        </mxCell>
        <mxCell id="mRc1NS2iaqrwV8b89fMp-22" value="保存上传信息&lt;br&gt;SaveUploadInfo（）" style="html=1;verticalAlign=bottom;endArrow=block;curved=0;rounded=0;" edge="1" parent="1">
          <mxGeometry x="0.0268" y="14" width="80" relative="1" as="geometry">
            <mxPoint x="525" y="533" as="sourcePoint" />
            <mxPoint x="1177.5" y="533" as="targetPoint" />
            <mxPoint as="offset" />
          </mxGeometry>
        </mxCell>
        <mxCell id="mRc1NS2iaqrwV8b89fMp-23" value="上传完成" style="html=1;verticalAlign=bottom;endArrow=open;dashed=1;endSize=8;curved=0;rounded=0;exitX=-0.2;exitY=0.415;exitDx=0;exitDy=0;exitPerimeter=0;" edge="1" parent="1">
          <mxGeometry relative="1" as="geometry">
            <mxPoint x="303" y="568.2" as="sourcePoint" />
            <mxPoint x="125" y="568.2" as="targetPoint" />
          </mxGeometry>
        </mxCell>
        <mxCell id="mRc1NS2iaqrwV8b89fMp-24" value="FileHelper" style="shape=umlLifeline;perimeter=lifelinePerimeter;whiteSpace=wrap;html=1;container=1;dropTarget=0;collapsible=0;recursiveResize=0;outlineConnect=0;portConstraint=eastwest;newEdgeStyle={&quot;curved&quot;:0,&quot;rounded&quot;:0};" vertex="1" parent="1">
          <mxGeometry x="727" y="180" width="100" height="1320" as="geometry" />
        </mxCell>
        <mxCell id="mRc1NS2iaqrwV8b89fMp-25" value="" style="html=1;points=[[0,0,0,0,5],[0,1,0,0,-5],[1,0,0,0,5],[1,1,0,0,-5]];perimeter=orthogonalPerimeter;outlineConnect=0;targetShapes=umlLifeline;portConstraint=eastwest;newEdgeStyle={&quot;curved&quot;:0,&quot;rounded&quot;:0};" vertex="1" parent="mRc1NS2iaqrwV8b89fMp-24">
          <mxGeometry x="45" y="926" width="10" height="50" as="geometry" />
        </mxCell>
        <mxCell id="mRc1NS2iaqrwV8b89fMp-70" value="" style="html=1;points=[[0,0,0,0,5],[0,1,0,0,-5],[1,0,0,0,5],[1,1,0,0,-5]];perimeter=orthogonalPerimeter;outlineConnect=0;targetShapes=umlLifeline;portConstraint=eastwest;newEdgeStyle={&quot;curved&quot;:0,&quot;rounded&quot;:0};" vertex="1" parent="mRc1NS2iaqrwV8b89fMp-24">
          <mxGeometry x="45" y="245" width="10" height="63" as="geometry" />
        </mxCell>
        <mxCell id="mRc1NS2iaqrwV8b89fMp-26" value="获取文件Hash&lt;br&gt;GetFileHash" style="html=1;verticalAlign=bottom;endArrow=block;curved=0;rounded=0;entryX=0;entryY=0;entryDx=0;entryDy=5;entryPerimeter=0;" edge="1" parent="1">
          <mxGeometry width="80" relative="1" as="geometry">
            <mxPoint x="320" y="1124" as="sourcePoint" />
            <mxPoint x="772" y="1124" as="targetPoint" />
          </mxGeometry>
        </mxCell>
        <mxCell id="mRc1NS2iaqrwV8b89fMp-27" value="return 文件上传列表" style="html=1;verticalAlign=bottom;endArrow=open;dashed=1;endSize=8;curved=0;rounded=0;exitX=0;exitY=1;exitDx=0;exitDy=-5;exitPerimeter=0;" edge="1" parent="1" source="mRc1NS2iaqrwV8b89fMp-5" target="mRc1NS2iaqrwV8b89fMp-3">
          <mxGeometry x="0.0014" y="-7" relative="1" as="geometry">
            <mxPoint x="840" y="310" as="sourcePoint" />
            <mxPoint x="760" y="310" as="targetPoint" />
            <mxPoint as="offset" />
          </mxGeometry>
        </mxCell>
        <mxCell id="mRc1NS2iaqrwV8b89fMp-28" value="return 文件Hash" style="html=1;verticalAlign=bottom;endArrow=open;dashed=1;endSize=8;curved=0;rounded=0;exitX=0;exitY=1;exitDx=0;exitDy=-5;exitPerimeter=0;" edge="1" parent="1" source="mRc1NS2iaqrwV8b89fMp-25" target="mRc1NS2iaqrwV8b89fMp-12">
          <mxGeometry relative="1" as="geometry">
            <mxPoint x="690" y="1156" as="sourcePoint" />
            <mxPoint x="315" y="1151" as="targetPoint" />
          </mxGeometry>
        </mxCell>
        <mxCell id="mRc1NS2iaqrwV8b89fMp-29" value="文件识别&lt;br&gt;校验&lt;br&gt;没有上传Url" style="text;html=1;align=center;verticalAlign=middle;resizable=0;points=[];autosize=1;strokeColor=none;fillColor=none;" vertex="1" parent="1">
          <mxGeometry x="223" y="1122" width="90" height="60" as="geometry" />
        </mxCell>
        <mxCell id="mRc1NS2iaqrwV8b89fMp-30" value="获取文件组合hash&lt;br&gt;GetMd5SysFile()" style="html=1;verticalAlign=bottom;endArrow=block;curved=0;rounded=0;" edge="1" parent="1">
          <mxGeometry width="80" relative="1" as="geometry">
            <mxPoint x="320" y="1206" as="sourcePoint" />
            <mxPoint x="772" y="1206" as="targetPoint" />
          </mxGeometry>
        </mxCell>
        <mxCell id="mRc1NS2iaqrwV8b89fMp-31" value="" style="html=1;points=[[0,0,0,0,5],[0,1,0,0,-5],[1,0,0,0,5],[1,1,0,0,-5]];perimeter=orthogonalPerimeter;outlineConnect=0;targetShapes=umlLifeline;portConstraint=eastwest;newEdgeStyle={&quot;curved&quot;:0,&quot;rounded&quot;:0};" vertex="1" parent="1">
          <mxGeometry x="772" y="1182" width="10" height="67" as="geometry" />
        </mxCell>
        <mxCell id="mRc1NS2iaqrwV8b89fMp-32" value="return 文件组合Hash" style="html=1;verticalAlign=bottom;endArrow=open;dashed=1;endSize=8;curved=0;rounded=0;" edge="1" parent="1">
          <mxGeometry relative="1" as="geometry">
            <mxPoint x="772" y="1231.5" as="sourcePoint" />
            <mxPoint x="320" y="1231.5" as="targetPoint" />
          </mxGeometry>
        </mxCell>
        <mxCell id="mRc1NS2iaqrwV8b89fMp-37" value="atl" style="shape=umlFrame;whiteSpace=wrap;html=1;pointerEvents=0;fillColor=#ffe6cc;strokeColor=#d79b00;" vertex="1" parent="1">
          <mxGeometry x="230" y="600" width="970" height="440" as="geometry" />
        </mxCell>
        <mxCell id="mRc1NS2iaqrwV8b89fMp-38" value="【文件并&lt;br&gt;&lt;span style=&quot;background-color: rgb(255, 255, 255);&quot;&gt;有上传Url】&lt;/span&gt;" style="text;html=1;align=center;verticalAlign=middle;resizable=0;points=[];autosize=1;strokeColor=none;fillColor=none;" vertex="1" parent="1">
          <mxGeometry x="223" y="630" width="90" height="40" as="geometry" />
        </mxCell>
        <mxCell id="mRc1NS2iaqrwV8b89fMp-39" value="" style="html=1;points=[[0,0,0,0,5],[0,1,0,0,-5],[1,0,0,0,5],[1,1,0,0,-5]];perimeter=orthogonalPerimeter;outlineConnect=0;targetShapes=umlLifeline;portConstraint=eastwest;newEdgeStyle={&quot;curved&quot;:0,&quot;rounded&quot;:0};" vertex="1" parent="1">
          <mxGeometry x="310" y="600" width="10" height="410" as="geometry" />
        </mxCell>
        <mxCell id="mRc1NS2iaqrwV8b89fMp-40" value="文件上传&lt;br&gt;UploadFile()" style="html=1;align=left;spacingLeft=2;endArrow=block;rounded=0;edgeStyle=orthogonalEdgeStyle;curved=0;rounded=0;" edge="1" parent="1">
          <mxGeometry x="0.0118" relative="1" as="geometry">
            <mxPoint x="315" y="587" as="sourcePoint" />
            <Array as="points">
              <mxPoint x="345" y="617" />
            </Array>
            <mxPoint x="320" y="617" as="targetPoint" />
            <mxPoint as="offset" />
          </mxGeometry>
        </mxCell>
        <mxCell id="mRc1NS2iaqrwV8b89fMp-41" value="上传文件块到Minio&lt;br&gt;UploadFileChunk()" style="html=1;verticalAlign=bottom;endArrow=block;curved=0;rounded=0;" edge="1" parent="1">
          <mxGeometry x="0.0008" width="80" relative="1" as="geometry">
            <mxPoint x="320" y="700" as="sourcePoint" />
            <mxPoint x="979.5" y="700" as="targetPoint" />
            <mxPoint as="offset" />
          </mxGeometry>
        </mxCell>
        <mxCell id="mRc1NS2iaqrwV8b89fMp-42" value="MinioServer" style="shape=umlLifeline;perimeter=lifelinePerimeter;whiteSpace=wrap;html=1;container=1;dropTarget=0;collapsible=0;recursiveResize=0;outlineConnect=0;portConstraint=eastwest;newEdgeStyle={&quot;curved&quot;:0,&quot;rounded&quot;:0};" vertex="1" parent="1">
          <mxGeometry x="920" y="180" width="120" height="1300" as="geometry" />
        </mxCell>
        <mxCell id="mRc1NS2iaqrwV8b89fMp-43" value="" style="html=1;points=[[0,0,0,0,5],[0,1,0,0,-5],[1,0,0,0,5],[1,1,0,0,-5]];perimeter=orthogonalPerimeter;outlineConnect=0;targetShapes=umlLifeline;portConstraint=eastwest;newEdgeStyle={&quot;curved&quot;:0,&quot;rounded&quot;:0};" vertex="1" parent="mRc1NS2iaqrwV8b89fMp-42">
          <mxGeometry x="55" y="514" width="10" height="40" as="geometry" />
        </mxCell>
        <mxCell id="mRc1NS2iaqrwV8b89fMp-45" value="return 文件块上传结果" style="html=1;verticalAlign=bottom;endArrow=open;dashed=1;endSize=8;curved=0;rounded=0;exitX=0;exitY=1;exitDx=0;exitDy=-5;exitPerimeter=0;" edge="1" parent="1" source="mRc1NS2iaqrwV8b89fMp-43">
          <mxGeometry relative="1" as="geometry">
            <mxPoint x="750" y="794" as="sourcePoint" />
            <mxPoint x="320" y="729" as="targetPoint" />
          </mxGeometry>
        </mxCell>
        <mxCell id="mRc1NS2iaqrwV8b89fMp-49" value="传完成" style="html=1;verticalAlign=bottom;endArrow=open;dashed=1;endSize=8;curved=0;rounded=0;" edge="1" parent="1">
          <mxGeometry relative="1" as="geometry">
            <mxPoint x="305" y="1028" as="sourcePoint" />
            <mxPoint x="125" y="1028" as="targetPoint" />
          </mxGeometry>
        </mxCell>
        <mxCell id="mRc1NS2iaqrwV8b89fMp-62" value="解析文件目录下的文件&lt;br&gt;或目录信息，不含子级" style="text;html=1;align=center;verticalAlign=middle;resizable=0;points=[];autosize=1;strokeColor=#b85450;fillColor=#f8cecc;" vertex="1" parent="1">
          <mxGeometry x="240" y="450" width="140" height="40" as="geometry" />
        </mxCell>
        <mxCell id="mRc1NS2iaqrwV8b89fMp-64" value="&lt;h1&gt;客户端&lt;/h1&gt;&lt;p&gt;&lt;br&gt;&lt;/p&gt;" style="text;html=1;strokeColor=none;fillColor=none;spacing=5;spacingTop=-20;whiteSpace=wrap;overflow=hidden;rounded=0;" vertex="1" parent="1">
          <mxGeometry x="582" y="120" width="190" height="40" as="geometry" />
        </mxCell>
        <mxCell id="mRc1NS2iaqrwV8b89fMp-66" value="alt" style="shape=umlFrame;whiteSpace=wrap;html=1;pointerEvents=0;fillColor=#ffe6cc;strokeColor=#d79b00;" vertex="1" parent="1">
          <mxGeometry x="390" y="420" width="440" height="70" as="geometry" />
        </mxCell>
        <mxCell id="mRc1NS2iaqrwV8b89fMp-67" value="【文件&lt;span style=&quot;background-color: rgb(255, 255, 255);&quot;&gt;】&lt;/span&gt;" style="text;html=1;align=center;verticalAlign=middle;resizable=0;points=[];autosize=1;strokeColor=none;fillColor=none;" vertex="1" parent="1">
          <mxGeometry x="425" y="460" width="70" height="30" as="geometry" />
        </mxCell>
        <mxCell id="mRc1NS2iaqrwV8b89fMp-71" value="获取文件Hash&lt;br style=&quot;border-color: var(--border-color);&quot;&gt;GetFileHash" style="html=1;verticalAlign=bottom;endArrow=block;curved=0;rounded=0;exitX=1.5;exitY=0.467;exitDx=0;exitDy=0;exitPerimeter=0;" edge="1" parent="1">
          <mxGeometry relative="1" as="geometry">
            <mxPoint x="530" y="449.05999999999995" as="sourcePoint" />
            <mxPoint x="772" y="449.05999999999995" as="targetPoint" />
          </mxGeometry>
        </mxCell>
        <mxCell id="mRc1NS2iaqrwV8b89fMp-72" value="return" style="html=1;verticalAlign=bottom;endArrow=open;dashed=1;endSize=8;curved=0;rounded=0;exitX=0;exitY=1;exitDx=0;exitDy=-5;" edge="1" parent="1">
          <mxGeometry relative="1" as="geometry">
            <mxPoint x="525" y="480" as="targetPoint" />
            <mxPoint x="772" y="480" as="sourcePoint" />
          </mxGeometry>
        </mxCell>
        <mxCell id="mRc1NS2iaqrwV8b89fMp-76" value="保存上传信息&lt;br style=&quot;border-color: var(--border-color);&quot;&gt;SaveUploadInfo（）" style="html=1;verticalAlign=bottom;endArrow=block;curved=0;rounded=0;" edge="1" parent="1">
          <mxGeometry x="0.0026" y="9" width="80" relative="1" as="geometry">
            <mxPoint x="320" y="1288" as="sourcePoint" />
            <mxPoint x="1177.75" y="1288" as="targetPoint" />
            <mxPoint as="offset" />
          </mxGeometry>
        </mxCell>
        <mxCell id="mRc1NS2iaqrwV8b89fMp-78" value="return" style="html=1;verticalAlign=bottom;endArrow=open;dashed=1;endSize=8;curved=0;rounded=0;" edge="1" parent="1" target="mRc1NS2iaqrwV8b89fMp-12">
          <mxGeometry relative="1" as="geometry">
            <mxPoint x="1177.75" y="1308" as="sourcePoint" />
            <mxPoint x="710" y="1311" as="targetPoint" />
          </mxGeometry>
        </mxCell>
        <mxCell id="mRc1NS2iaqrwV8b89fMp-85" value="alt" style="shape=umlFrame;whiteSpace=wrap;html=1;pointerEvents=0;fillColor=#ffe6cc;strokeColor=#d79b00;" vertex="1" parent="1">
          <mxGeometry x="240" y="853" width="265" height="70" as="geometry" />
        </mxCell>
        <mxCell id="mRc1NS2iaqrwV8b89fMp-86" value="Hash校验" style="text;html=1;align=center;verticalAlign=middle;resizable=0;points=[];autosize=1;strokeColor=none;fillColor=none;" vertex="1" parent="1">
          <mxGeometry x="229" y="887" width="80" height="30" as="geometry" />
        </mxCell>
        <mxCell id="mRc1NS2iaqrwV8b89fMp-89" value="UploadFileController" style="shape=umlLifeline;perimeter=lifelinePerimeter;whiteSpace=wrap;html=1;container=1;dropTarget=0;collapsible=0;recursiveResize=0;outlineConnect=0;portConstraint=eastwest;newEdgeStyle={&quot;curved&quot;:0,&quot;rounded&quot;:0};" vertex="1" parent="1">
          <mxGeometry x="130" y="1860" width="140" height="2070" as="geometry" />
        </mxCell>
        <mxCell id="mRc1NS2iaqrwV8b89fMp-90" value="" style="html=1;points=[[0,0,0,0,5],[0,1,0,0,-5],[1,0,0,0,5],[1,1,0,0,-5]];perimeter=orthogonalPerimeter;outlineConnect=0;targetShapes=umlLifeline;portConstraint=eastwest;newEdgeStyle={&quot;curved&quot;:0,&quot;rounded&quot;:0};" vertex="1" parent="mRc1NS2iaqrwV8b89fMp-89">
          <mxGeometry x="65" y="60" width="10" height="880" as="geometry" />
        </mxCell>
        <mxCell id="mRc1NS2iaqrwV8b89fMp-162" value="" style="html=1;points=[[0,0,0,0,5],[0,1,0,0,-5],[1,0,0,0,5],[1,1,0,0,-5]];perimeter=orthogonalPerimeter;outlineConnect=0;targetShapes=umlLifeline;portConstraint=eastwest;newEdgeStyle={&quot;curved&quot;:0,&quot;rounded&quot;:0};" vertex="1" parent="mRc1NS2iaqrwV8b89fMp-89">
          <mxGeometry x="65" y="1661" width="10" height="585" as="geometry" />
        </mxCell>
        <mxCell id="mRc1NS2iaqrwV8b89fMp-195" value="" style="html=1;points=[[0,0,0,0,5],[0,1,0,0,-5],[1,0,0,0,5],[1,1,0,0,-5]];perimeter=orthogonalPerimeter;outlineConnect=0;targetShapes=umlLifeline;portConstraint=eastwest;newEdgeStyle={&quot;curved&quot;:0,&quot;rounded&quot;:0};" vertex="1" parent="mRc1NS2iaqrwV8b89fMp-89">
          <mxGeometry x="65" y="2326" width="10" height="80" as="geometry" />
        </mxCell>
        <mxCell id="mRc1NS2iaqrwV8b89fMp-93" value="" style="shape=umlLifeline;perimeter=lifelinePerimeter;whiteSpace=wrap;html=1;container=1;dropTarget=0;collapsible=0;recursiveResize=0;outlineConnect=0;portConstraint=eastwest;newEdgeStyle={&quot;curved&quot;:0,&quot;rounded&quot;:0};participant=umlActor;" vertex="1" parent="1">
          <mxGeometry x="10" y="1860" width="20" height="2070" as="geometry" />
        </mxCell>
        <mxCell id="mRc1NS2iaqrwV8b89fMp-147" value="" style="html=1;points=[[0,0,0,0,5],[0,1,0,0,-5],[1,0,0,0,5],[1,1,0,0,-5]];perimeter=orthogonalPerimeter;outlineConnect=0;targetShapes=umlLifeline;portConstraint=eastwest;newEdgeStyle={&quot;curved&quot;:0,&quot;rounded&quot;:0};" vertex="1" parent="mRc1NS2iaqrwV8b89fMp-93">
          <mxGeometry x="5" y="70" width="10" height="900" as="geometry" />
        </mxCell>
        <mxCell id="mRc1NS2iaqrwV8b89fMp-161" value="" style="html=1;points=[[0,0,0,0,5],[0,1,0,0,-5],[1,0,0,0,5],[1,1,0,0,-5]];perimeter=orthogonalPerimeter;outlineConnect=0;targetShapes=umlLifeline;portConstraint=eastwest;newEdgeStyle={&quot;curved&quot;:0,&quot;rounded&quot;:0};" vertex="1" parent="mRc1NS2iaqrwV8b89fMp-93">
          <mxGeometry x="5" y="1656" width="10" height="610" as="geometry" />
        </mxCell>
        <mxCell id="mRc1NS2iaqrwV8b89fMp-194" value="" style="html=1;points=[[0,0,0,0,5],[0,1,0,0,-5],[1,0,0,0,5],[1,1,0,0,-5]];perimeter=orthogonalPerimeter;outlineConnect=0;targetShapes=umlLifeline;portConstraint=eastwest;newEdgeStyle={&quot;curved&quot;:0,&quot;rounded&quot;:0};" vertex="1" parent="mRc1NS2iaqrwV8b89fMp-93">
          <mxGeometry x="5" y="2316" width="10" height="80" as="geometry" />
        </mxCell>
        <mxCell id="mRc1NS2iaqrwV8b89fMp-94" value="UploadFileService" style="shape=umlLifeline;perimeter=lifelinePerimeter;whiteSpace=wrap;html=1;container=1;dropTarget=0;collapsible=0;recursiveResize=0;outlineConnect=0;portConstraint=eastwest;newEdgeStyle={&quot;curved&quot;:0,&quot;rounded&quot;:0};" vertex="1" parent="1">
          <mxGeometry x="380" y="1860" width="140" height="1630" as="geometry" />
        </mxCell>
        <mxCell id="mRc1NS2iaqrwV8b89fMp-95" value="" style="html=1;points=[[0,0,0,0,5],[0,1,0,0,-5],[1,0,0,0,5],[1,1,0,0,-5]];perimeter=orthogonalPerimeter;outlineConnect=0;targetShapes=umlLifeline;portConstraint=eastwest;newEdgeStyle={&quot;curved&quot;:0,&quot;rounded&quot;:0};" vertex="1" parent="mRc1NS2iaqrwV8b89fMp-94">
          <mxGeometry x="65" y="100" width="10" height="800" as="geometry" />
        </mxCell>
        <mxCell id="mRc1NS2iaqrwV8b89fMp-164" value="" style="html=1;points=[[0,0,0,0,5],[0,1,0,0,-5],[1,0,0,0,5],[1,1,0,0,-5]];perimeter=orthogonalPerimeter;outlineConnect=0;targetShapes=umlLifeline;portConstraint=eastwest;newEdgeStyle={&quot;curved&quot;:0,&quot;rounded&quot;:0};" vertex="1" parent="mRc1NS2iaqrwV8b89fMp-94">
          <mxGeometry x="65" y="1676" width="10" height="540" as="geometry" />
        </mxCell>
        <mxCell id="mRc1NS2iaqrwV8b89fMp-99" value="UploadFileMapper" style="shape=umlLifeline;perimeter=lifelinePerimeter;whiteSpace=wrap;html=1;container=1;dropTarget=0;collapsible=0;recursiveResize=0;outlineConnect=0;portConstraint=eastwest;newEdgeStyle={&quot;curved&quot;:0,&quot;rounded&quot;:0};" vertex="1" parent="1">
          <mxGeometry x="600" y="1860" width="140" height="1650" as="geometry" />
        </mxCell>
        <mxCell id="mRc1NS2iaqrwV8b89fMp-107" value="" style="html=1;points=[[0,0,0,0,5],[0,1,0,0,-5],[1,0,0,0,5],[1,1,0,0,-5]];perimeter=orthogonalPerimeter;outlineConnect=0;targetShapes=umlLifeline;portConstraint=eastwest;newEdgeStyle={&quot;curved&quot;:0,&quot;rounded&quot;:0};" vertex="1" parent="mRc1NS2iaqrwV8b89fMp-99">
          <mxGeometry x="65" y="130" width="10" height="50" as="geometry" />
        </mxCell>
        <mxCell id="mRc1NS2iaqrwV8b89fMp-174" value="" style="html=1;points=[[0,0,0,0,5],[0,1,0,0,-5],[1,0,0,0,5],[1,1,0,0,-5]];perimeter=orthogonalPerimeter;outlineConnect=0;targetShapes=umlLifeline;portConstraint=eastwest;newEdgeStyle={&quot;curved&quot;:0,&quot;rounded&quot;:0};" vertex="1" parent="mRc1NS2iaqrwV8b89fMp-99">
          <mxGeometry x="65" y="1845" width="10" height="60" as="geometry" />
        </mxCell>
        <mxCell id="mRc1NS2iaqrwV8b89fMp-185" value="" style="html=1;points=[[0,0,0,0,5],[0,1,0,0,-5],[1,0,0,0,5],[1,1,0,0,-5]];perimeter=orthogonalPerimeter;outlineConnect=0;targetShapes=umlLifeline;portConstraint=eastwest;newEdgeStyle={&quot;curved&quot;:0,&quot;rounded&quot;:0};" vertex="1" parent="mRc1NS2iaqrwV8b89fMp-99">
          <mxGeometry x="65" y="2066" width="10" height="50" as="geometry" />
        </mxCell>
        <mxCell id="mRc1NS2iaqrwV8b89fMp-188" value="" style="html=1;points=[[0,0,0,0,5],[0,1,0,0,-5],[1,0,0,0,5],[1,1,0,0,-5]];perimeter=orthogonalPerimeter;outlineConnect=0;targetShapes=umlLifeline;portConstraint=eastwest;newEdgeStyle={&quot;curved&quot;:0,&quot;rounded&quot;:0};" vertex="1" parent="mRc1NS2iaqrwV8b89fMp-99">
          <mxGeometry x="65" y="2138" width="10" height="48" as="geometry" />
        </mxCell>
        <mxCell id="mRc1NS2iaqrwV8b89fMp-103" value="&lt;h1&gt;服务端&lt;/h1&gt;&lt;p&gt;&lt;br&gt;&lt;/p&gt;" style="text;html=1;strokeColor=none;fillColor=none;spacing=5;spacingTop=-20;whiteSpace=wrap;overflow=hidden;rounded=0;" vertex="1" parent="1">
          <mxGeometry x="537" y="1760" width="190" height="40" as="geometry" />
        </mxCell>
        <mxCell id="mRc1NS2iaqrwV8b89fMp-104" value="获取需文件上传列表&lt;br style=&quot;border-color: var(--border-color);&quot;&gt;GetUploadList()" style="html=1;verticalAlign=bottom;endArrow=block;curved=0;rounded=0;exitX=1;exitY=0;exitDx=0;exitDy=5;exitPerimeter=0;" edge="1" parent="1" source="mRc1NS2iaqrwV8b89fMp-147" target="mRc1NS2iaqrwV8b89fMp-90">
          <mxGeometry width="80" relative="1" as="geometry">
            <mxPoint x="50" y="1940" as="sourcePoint" />
            <mxPoint x="170" y="1940" as="targetPoint" />
            <mxPoint as="offset" />
          </mxGeometry>
        </mxCell>
        <mxCell id="mRc1NS2iaqrwV8b89fMp-105" value="根据机器码获取备份文件列表&lt;br&gt;GetUploadList()" style="html=1;verticalAlign=bottom;endArrow=block;curved=0;rounded=0;" edge="1" parent="1">
          <mxGeometry width="80" relative="1" as="geometry">
            <mxPoint x="205" y="1974" as="sourcePoint" />
            <mxPoint x="445" y="1974" as="targetPoint" />
            <mxPoint as="offset" />
          </mxGeometry>
        </mxCell>
        <mxCell id="mRc1NS2iaqrwV8b89fMp-106" value="Db" style="shape=note;whiteSpace=wrap;html=1;size=14;verticalAlign=top;align=left;spacingTop=-6;rounded=0;shadow=0;comic=0;labelBackgroundColor=none;strokeWidth=1;fontFamily=Verdana;fontSize=12" vertex="1" parent="1">
          <mxGeometry x="620" y="1820" width="100" height="35" as="geometry" />
        </mxCell>
        <mxCell id="mRc1NS2iaqrwV8b89fMp-108" value="根据机器码获取待上传的文件列表&lt;br style=&quot;border-color: var(--border-color);&quot;&gt;GetUploadList()" style="html=1;verticalAlign=bottom;endArrow=block;curved=0;rounded=0;entryX=0;entryY=0;entryDx=0;entryDy=5;" edge="1" target="mRc1NS2iaqrwV8b89fMp-107" parent="1" source="mRc1NS2iaqrwV8b89fMp-95">
          <mxGeometry relative="1" as="geometry">
            <mxPoint x="595" y="1995" as="sourcePoint" />
            <mxPoint as="offset" />
          </mxGeometry>
        </mxCell>
        <mxCell id="mRc1NS2iaqrwV8b89fMp-109" value="return" style="html=1;verticalAlign=bottom;endArrow=open;dashed=1;endSize=8;curved=0;rounded=0;exitX=0;exitY=1;exitDx=0;exitDy=-5;" edge="1" source="mRc1NS2iaqrwV8b89fMp-107" parent="1" target="mRc1NS2iaqrwV8b89fMp-95">
          <mxGeometry relative="1" as="geometry">
            <mxPoint x="595" y="2065" as="targetPoint" />
          </mxGeometry>
        </mxCell>
        <mxCell id="mRc1NS2iaqrwV8b89fMp-111" value="return" style="html=1;verticalAlign=bottom;endArrow=open;dashed=1;endSize=8;curved=0;rounded=0;exitX=0;exitY=1;exitDx=0;exitDy=-5;exitPerimeter=0;" edge="1" parent="1" source="mRc1NS2iaqrwV8b89fMp-90" target="mRc1NS2iaqrwV8b89fMp-147">
          <mxGeometry relative="1" as="geometry">
            <mxPoint x="195" y="2572" as="sourcePoint" />
            <mxPoint x="25" y="2572" as="targetPoint" />
          </mxGeometry>
        </mxCell>
        <mxCell id="mRc1NS2iaqrwV8b89fMp-113" value="alt" style="shape=umlFrame;whiteSpace=wrap;html=1;pointerEvents=0;fillColor=#ffe6cc;strokeColor=#d79b00;" vertex="1" parent="1">
          <mxGeometry x="369" y="2050" width="591" height="140" as="geometry" />
        </mxCell>
        <mxCell id="mRc1NS2iaqrwV8b89fMp-114" value="是文件&lt;br&gt;并且url不为空&lt;br&gt;是文件&lt;br style=&quot;border-color: var(--border-color);&quot;&gt;并且Url申请时间&lt;br&gt;大于2天" style="text;html=1;align=center;verticalAlign=middle;resizable=0;points=[];autosize=1;strokeColor=none;fillColor=none;" vertex="1" parent="1">
          <mxGeometry x="340" y="2100" width="110" height="90" as="geometry" />
        </mxCell>
        <mxCell id="mRc1NS2iaqrwV8b89fMp-115" value="MinioServerr" style="shape=umlLifeline;perimeter=lifelinePerimeter;whiteSpace=wrap;html=1;container=1;dropTarget=0;collapsible=0;recursiveResize=0;outlineConnect=0;portConstraint=eastwest;newEdgeStyle={&quot;curved&quot;:0,&quot;rounded&quot;:0};" vertex="1" parent="1">
          <mxGeometry x="850" y="1860" width="140" height="1680" as="geometry" />
        </mxCell>
        <mxCell id="mRc1NS2iaqrwV8b89fMp-123" value="" style="html=1;points=[[0,0,0,0,5],[0,1,0,0,-5],[1,0,0,0,5],[1,1,0,0,-5]];perimeter=orthogonalPerimeter;outlineConnect=0;targetShapes=umlLifeline;portConstraint=eastwest;newEdgeStyle={&quot;curved&quot;:0,&quot;rounded&quot;:0};" vertex="1" parent="mRc1NS2iaqrwV8b89fMp-115">
          <mxGeometry x="65" y="220" width="10" height="60" as="geometry" />
        </mxCell>
        <mxCell id="mRc1NS2iaqrwV8b89fMp-117" value="RedisKeyUtil" style="shape=umlLifeline;perimeter=lifelinePerimeter;whiteSpace=wrap;html=1;container=1;dropTarget=0;collapsible=0;recursiveResize=0;outlineConnect=0;portConstraint=eastwest;newEdgeStyle={&quot;curved&quot;:0,&quot;rounded&quot;:0};" vertex="1" parent="1">
          <mxGeometry x="1100" y="1857" width="140" height="1340" as="geometry" />
        </mxCell>
        <mxCell id="mRc1NS2iaqrwV8b89fMp-149" value="" style="html=1;points=[[0,0,0,0,5],[0,1,0,0,-5],[1,0,0,0,5],[1,1,0,0,-5]];perimeter=orthogonalPerimeter;outlineConnect=0;targetShapes=umlLifeline;portConstraint=eastwest;newEdgeStyle={&quot;curved&quot;:0,&quot;rounded&quot;:0};" vertex="1" parent="mRc1NS2iaqrwV8b89fMp-117">
          <mxGeometry x="65" y="825" width="10" height="44" as="geometry" />
        </mxCell>
        <mxCell id="mRc1NS2iaqrwV8b89fMp-152" value="" style="html=1;points=[[0,0,0,0,5],[0,1,0,0,-5],[1,0,0,0,5],[1,1,0,0,-5]];perimeter=orthogonalPerimeter;outlineConnect=0;targetShapes=umlLifeline;portConstraint=eastwest;newEdgeStyle={&quot;curved&quot;:0,&quot;rounded&quot;:0};" vertex="1" parent="mRc1NS2iaqrwV8b89fMp-117">
          <mxGeometry x="65" y="686" width="10" height="54" as="geometry" />
        </mxCell>
        <mxCell id="mRc1NS2iaqrwV8b89fMp-121" value="申请上传url&lt;br&gt;GetUploadFileUrl()" style="html=1;verticalAlign=bottom;endArrow=block;curved=0;rounded=0;" edge="1" parent="1">
          <mxGeometry x="-0.25" width="80" relative="1" as="geometry">
            <mxPoint x="455" y="2093" as="sourcePoint" />
            <mxPoint x="915" y="2093" as="targetPoint" />
            <mxPoint as="offset" />
          </mxGeometry>
        </mxCell>
        <mxCell id="mRc1NS2iaqrwV8b89fMp-124" value="return" style="html=1;verticalAlign=bottom;endArrow=open;dashed=1;endSize=8;curved=0;rounded=0;exitX=0;exitY=1;exitDx=0;exitDy=-5;exitPerimeter=0;" edge="1" parent="1" source="mRc1NS2iaqrwV8b89fMp-123" target="mRc1NS2iaqrwV8b89fMp-95">
          <mxGeometry relative="1" as="geometry">
            <mxPoint x="810" y="2130" as="sourcePoint" />
            <mxPoint x="730" y="2130" as="targetPoint" />
          </mxGeometry>
        </mxCell>
        <mxCell id="mRc1NS2iaqrwV8b89fMp-125" value="alt" style="shape=umlFrame;whiteSpace=wrap;html=1;pointerEvents=0;fillColor=#ffe6cc;strokeColor=#d79b00;" vertex="1" parent="1">
          <mxGeometry x="369" y="2223" width="591" height="297" as="geometry" />
        </mxCell>
        <mxCell id="mRc1NS2iaqrwV8b89fMp-126" value="是切片&lt;br&gt;并且url不为空&lt;br&gt;是文件&lt;br style=&quot;border-color: var(--border-color);&quot;&gt;并且Url申请时间&lt;br&gt;大于2天" style="text;html=1;align=center;verticalAlign=middle;resizable=0;points=[];autosize=1;strokeColor=none;fillColor=none;" vertex="1" parent="1">
          <mxGeometry x="350" y="2262" width="110" height="90" as="geometry" />
        </mxCell>
        <mxCell id="mRc1NS2iaqrwV8b89fMp-128" value="" style="html=1;points=[[0,0,0,0,5],[0,1,0,0,-5],[1,0,0,0,5],[1,1,0,0,-5]];perimeter=orthogonalPerimeter;outlineConnect=0;targetShapes=umlLifeline;portConstraint=eastwest;newEdgeStyle={&quot;curved&quot;:0,&quot;rounded&quot;:0};" vertex="1" parent="1">
          <mxGeometry x="450" y="2251" width="10" height="249" as="geometry" />
        </mxCell>
        <mxCell id="mRc1NS2iaqrwV8b89fMp-129" value="重新生成切片Url&lt;br&gt;regenChunk()" style="html=1;align=left;spacingLeft=2;endArrow=block;rounded=0;edgeStyle=orthogonalEdgeStyle;curved=0;rounded=0;" edge="1" parent="1">
          <mxGeometry x="0.0118" relative="1" as="geometry">
            <mxPoint x="455" y="2232" as="sourcePoint" />
            <Array as="points">
              <mxPoint x="485" y="2262" />
            </Array>
            <mxPoint x="460" y="2262" as="targetPoint" />
            <mxPoint as="offset" />
          </mxGeometry>
        </mxCell>
        <mxCell id="mRc1NS2iaqrwV8b89fMp-133" value="删除切片任务&lt;br&gt;DeleteChunkTask()" style="html=1;verticalAlign=bottom;endArrow=block;curved=0;rounded=0;" edge="1" parent="1">
          <mxGeometry x="0.0049" width="80" relative="1" as="geometry">
            <mxPoint x="460" y="2290" as="sourcePoint" />
            <mxPoint x="665" y="2290" as="targetPoint" />
            <mxPoint as="offset" />
          </mxGeometry>
        </mxCell>
        <mxCell id="mRc1NS2iaqrwV8b89fMp-134" value="" style="html=1;points=[[0,0,0,0,5],[0,1,0,0,-5],[1,0,0,0,5],[1,1,0,0,-5]];perimeter=orthogonalPerimeter;outlineConnect=0;targetShapes=umlLifeline;portConstraint=eastwest;newEdgeStyle={&quot;curved&quot;:0,&quot;rounded&quot;:0};" vertex="1" parent="1">
          <mxGeometry x="665" y="2284" width="10" height="56" as="geometry" />
        </mxCell>
        <mxCell id="mRc1NS2iaqrwV8b89fMp-135" value="return" style="html=1;verticalAlign=bottom;endArrow=open;dashed=1;endSize=8;curved=0;rounded=0;exitX=0;exitY=1;exitDx=0;exitDy=-5;exitPerimeter=0;entryX=0.991;entryY=0.778;entryDx=0;entryDy=0;entryPerimeter=0;" edge="1" parent="1" source="mRc1NS2iaqrwV8b89fMp-134" target="mRc1NS2iaqrwV8b89fMp-126">
          <mxGeometry relative="1" as="geometry">
            <mxPoint x="610" y="2332" as="sourcePoint" />
            <mxPoint x="530" y="2332" as="targetPoint" />
          </mxGeometry>
        </mxCell>
        <mxCell id="mRc1NS2iaqrwV8b89fMp-136" value="" style="html=1;points=[[0,0,0,0,5],[0,1,0,0,-5],[1,0,0,0,5],[1,1,0,0,-5]];perimeter=orthogonalPerimeter;outlineConnect=0;targetShapes=umlLifeline;portConstraint=eastwest;newEdgeStyle={&quot;curved&quot;:0,&quot;rounded&quot;:0};" vertex="1" parent="1">
          <mxGeometry x="915" y="2369" width="10" height="60" as="geometry" />
        </mxCell>
        <mxCell id="mRc1NS2iaqrwV8b89fMp-139" value="文件切片申请Url&lt;br&gt;GetUploadChunkUrl()" style="html=1;verticalAlign=bottom;endArrow=block;curved=0;rounded=0;entryX=0;entryY=0;entryDx=0;entryDy=5;entryPerimeter=0;" edge="1" parent="1">
          <mxGeometry x="0.0022" width="80" relative="1" as="geometry">
            <mxPoint x="460" y="2375" as="sourcePoint" />
            <mxPoint x="915" y="2375" as="targetPoint" />
            <mxPoint as="offset" />
          </mxGeometry>
        </mxCell>
        <mxCell id="mRc1NS2iaqrwV8b89fMp-140" value="return" style="html=1;verticalAlign=bottom;endArrow=open;dashed=1;endSize=8;curved=0;rounded=0;exitX=0;exitY=1;exitDx=0;exitDy=-5;exitPerimeter=0;" edge="1" parent="1" source="mRc1NS2iaqrwV8b89fMp-136">
          <mxGeometry relative="1" as="geometry">
            <mxPoint x="820" y="2422" as="sourcePoint" />
            <mxPoint x="460" y="2424" as="targetPoint" />
          </mxGeometry>
        </mxCell>
        <mxCell id="mRc1NS2iaqrwV8b89fMp-141" value="" style="html=1;points=[[0,0,0,0,5],[0,1,0,0,-5],[1,0,0,0,5],[1,1,0,0,-5]];perimeter=orthogonalPerimeter;outlineConnect=0;targetShapes=umlLifeline;portConstraint=eastwest;newEdgeStyle={&quot;curved&quot;:0,&quot;rounded&quot;:0};" vertex="1" parent="1">
          <mxGeometry x="665" y="2432" width="10" height="70" as="geometry" />
        </mxCell>
        <mxCell id="mRc1NS2iaqrwV8b89fMp-142" value="新增切片任务&lt;br&gt;InsertChunkTask()" style="html=1;verticalAlign=bottom;endArrow=block;curved=0;rounded=0;" edge="1" parent="1">
          <mxGeometry width="80" relative="1" as="geometry">
            <mxPoint x="460" y="2456" as="sourcePoint" />
            <mxPoint x="665" y="2456" as="targetPoint" />
          </mxGeometry>
        </mxCell>
        <mxCell id="mRc1NS2iaqrwV8b89fMp-143" value="排除切片过的文件" style="text;html=1;align=center;verticalAlign=middle;resizable=0;points=[];autosize=1;strokeColor=#b85450;fillColor=#f8cecc;" vertex="1" parent="1">
          <mxGeometry x="505" y="1925" width="120" height="30" as="geometry" />
        </mxCell>
        <mxCell id="mRc1NS2iaqrwV8b89fMp-144" value="return" style="html=1;verticalAlign=bottom;endArrow=open;dashed=1;endSize=8;curved=0;rounded=0;" edge="1" parent="1">
          <mxGeometry relative="1" as="geometry">
            <mxPoint x="665" y="2482" as="sourcePoint" />
            <mxPoint x="460" y="2482" as="targetPoint" />
          </mxGeometry>
        </mxCell>
        <mxCell id="mRc1NS2iaqrwV8b89fMp-145" value="跳过本次循环不上传" style="html=1;verticalAlign=bottom;endArrow=open;dashed=1;endSize=8;curved=0;rounded=0;" edge="1" parent="1" source="mRc1NS2iaqrwV8b89fMp-95">
          <mxGeometry x="0.0074" relative="1" as="geometry">
            <mxPoint x="430" y="2510" as="sourcePoint" />
            <mxPoint x="310" y="2510" as="targetPoint" />
            <mxPoint as="offset" />
          </mxGeometry>
        </mxCell>
        <mxCell id="mRc1NS2iaqrwV8b89fMp-148" value="设置文件上传中状态&lt;br&gt;SetUploadingKey()" style="html=1;verticalAlign=bottom;endArrow=block;curved=0;rounded=0;" edge="1" parent="1">
          <mxGeometry width="80" relative="1" as="geometry">
            <mxPoint x="455" y="2709" as="sourcePoint" />
            <mxPoint x="1165" y="2709" as="targetPoint" />
          </mxGeometry>
        </mxCell>
        <mxCell id="mRc1NS2iaqrwV8b89fMp-150" value="alt" style="shape=umlFrame;whiteSpace=wrap;html=1;pointerEvents=0;fillColor=#ffe6cc;strokeColor=#d79b00;" vertex="1" parent="1">
          <mxGeometry x="379" y="2601" width="191" height="90" as="geometry" />
        </mxCell>
        <mxCell id="mRc1NS2iaqrwV8b89fMp-151" value="文件&lt;br&gt;上传中" style="text;html=1;align=center;verticalAlign=middle;resizable=0;points=[];autosize=1;strokeColor=none;fillColor=none;" vertex="1" parent="1">
          <mxGeometry x="480" y="2626" width="60" height="40" as="geometry" />
        </mxCell>
        <mxCell id="mRc1NS2iaqrwV8b89fMp-153" value="检查文件是否上传中&lt;br&gt;CheckUploading()" style="html=1;verticalAlign=bottom;endArrow=block;curved=0;rounded=0;" edge="1" parent="1">
          <mxGeometry width="80" relative="1" as="geometry">
            <mxPoint x="455" y="2566" as="sourcePoint" />
            <mxPoint x="1165" y="2566" as="targetPoint" />
          </mxGeometry>
        </mxCell>
        <mxCell id="mRc1NS2iaqrwV8b89fMp-155" value="return" style="html=1;verticalAlign=bottom;endArrow=open;dashed=1;endSize=8;curved=0;rounded=0;exitX=0;exitY=1;exitDx=0;exitDy=-5;exitPerimeter=0;" edge="1" parent="1">
          <mxGeometry relative="1" as="geometry">
            <mxPoint x="1165" y="2585" as="sourcePoint" />
            <mxPoint x="455" y="2585" as="targetPoint" />
          </mxGeometry>
        </mxCell>
        <mxCell id="mRc1NS2iaqrwV8b89fMp-156" value="跳过本次循环不上传" style="html=1;verticalAlign=bottom;endArrow=open;dashed=1;endSize=8;curved=0;rounded=0;" edge="1" parent="1" source="mRc1NS2iaqrwV8b89fMp-95">
          <mxGeometry x="0.0074" relative="1" as="geometry">
            <mxPoint x="390" y="2680" as="sourcePoint" />
            <mxPoint x="280" y="2680" as="targetPoint" />
            <mxPoint as="offset" />
          </mxGeometry>
        </mxCell>
        <mxCell id="mRc1NS2iaqrwV8b89fMp-158" value="return" style="html=1;verticalAlign=bottom;endArrow=open;dashed=1;endSize=8;curved=0;rounded=0;exitX=0;exitY=1;exitDx=0;exitDy=-5;exitPerimeter=0;" edge="1" parent="1" source="mRc1NS2iaqrwV8b89fMp-95" target="mRc1NS2iaqrwV8b89fMp-90">
          <mxGeometry relative="1" as="geometry">
            <mxPoint x="370" y="2750" as="sourcePoint" />
            <mxPoint x="290" y="2750" as="targetPoint" />
          </mxGeometry>
        </mxCell>
        <mxCell id="mRc1NS2iaqrwV8b89fMp-159" value="alt" style="shape=umlFrame;whiteSpace=wrap;html=1;pointerEvents=0;fillColor=#ffe6cc;strokeColor=#d79b00;" vertex="1" parent="1">
          <mxGeometry x="290" y="2526.5" width="930" height="203.5" as="geometry" />
        </mxCell>
        <mxCell id="mRc1NS2iaqrwV8b89fMp-160" value="文件&lt;br&gt;并且有Url" style="text;html=1;align=center;verticalAlign=middle;resizable=0;points=[];autosize=1;strokeColor=none;fillColor=none;" vertex="1" parent="1">
          <mxGeometry x="295" y="2570" width="70" height="40" as="geometry" />
        </mxCell>
        <mxCell id="mRc1NS2iaqrwV8b89fMp-163" value="保存目录信息&lt;br&gt;UploadFolderInfo()" style="html=1;verticalAlign=bottom;endArrow=block;curved=0;rounded=0;" edge="1" parent="1">
          <mxGeometry x="-0.25" width="80" relative="1" as="geometry">
            <mxPoint x="25" y="3532" as="sourcePoint" />
            <mxPoint x="195" y="3532" as="targetPoint" />
            <mxPoint as="offset" />
          </mxGeometry>
        </mxCell>
        <mxCell id="mRc1NS2iaqrwV8b89fMp-165" value="保存目录信息&lt;br style=&quot;border-color: var(--border-color);&quot;&gt;UploadFolderInfo()" style="html=1;verticalAlign=bottom;endArrow=block;curved=0;rounded=0;entryX=0;entryY=0;entryDx=0;entryDy=5;entryPerimeter=0;" edge="1" parent="1" source="mRc1NS2iaqrwV8b89fMp-162" target="mRc1NS2iaqrwV8b89fMp-164">
          <mxGeometry width="80" relative="1" as="geometry">
            <mxPoint x="250" y="3546" as="sourcePoint" />
            <mxPoint x="330" y="3546" as="targetPoint" />
            <mxPoint as="offset" />
          </mxGeometry>
        </mxCell>
        <mxCell id="mRc1NS2iaqrwV8b89fMp-166" value="alt" style="shape=umlFrame;whiteSpace=wrap;html=1;pointerEvents=0;fillColor=#ffe6cc;strokeColor=#d79b00;" vertex="1" parent="1">
          <mxGeometry x="350" y="3556" width="590" height="240" as="geometry" />
        </mxCell>
        <mxCell id="mRc1NS2iaqrwV8b89fMp-167" value="大文件" style="text;html=1;align=center;verticalAlign=middle;resizable=0;points=[];autosize=1;strokeColor=none;fillColor=none;" vertex="1" parent="1">
          <mxGeometry x="365" y="3606" width="60" height="30" as="geometry" />
        </mxCell>
        <mxCell id="mRc1NS2iaqrwV8b89fMp-168" value="" style="html=1;points=[[0,0,0,0,5],[0,1,0,0,-5],[1,0,0,0,5],[1,1,0,0,-5]];perimeter=orthogonalPerimeter;outlineConnect=0;targetShapes=umlLifeline;portConstraint=eastwest;newEdgeStyle={&quot;curved&quot;:0,&quot;rounded&quot;:0};" vertex="1" parent="1">
          <mxGeometry x="450" y="3591" width="10" height="185" as="geometry" />
        </mxCell>
        <mxCell id="mRc1NS2iaqrwV8b89fMp-169" value="文件切片&lt;br&gt;FileChunk()" style="html=1;align=left;spacingLeft=2;endArrow=block;rounded=0;edgeStyle=orthogonalEdgeStyle;curved=0;rounded=0;" edge="1" target="mRc1NS2iaqrwV8b89fMp-168" parent="1">
          <mxGeometry relative="1" as="geometry">
            <mxPoint x="455" y="3571" as="sourcePoint" />
            <Array as="points">
              <mxPoint x="485" y="3601" />
            </Array>
          </mxGeometry>
        </mxCell>
        <mxCell id="mRc1NS2iaqrwV8b89fMp-170" value="" style="html=1;points=[[0,0,0,0,5],[0,1,0,0,-5],[1,0,0,0,5],[1,1,0,0,-5]];perimeter=orthogonalPerimeter;outlineConnect=0;targetShapes=umlLifeline;portConstraint=eastwest;newEdgeStyle={&quot;curved&quot;:0,&quot;rounded&quot;:0};" vertex="1" parent="1">
          <mxGeometry x="915" y="3620" width="10" height="56" as="geometry" />
        </mxCell>
        <mxCell id="mRc1NS2iaqrwV8b89fMp-171" value="文件切片申请Url&lt;br style=&quot;border-color: var(--border-color);&quot;&gt;GetUploadChunkUrl()" style="html=1;verticalAlign=bottom;endArrow=block;curved=0;rounded=0;" edge="1" parent="1">
          <mxGeometry width="80" relative="1" as="geometry">
            <mxPoint x="460" y="3627" as="sourcePoint" />
            <mxPoint x="915" y="3627" as="targetPoint" />
          </mxGeometry>
        </mxCell>
        <mxCell id="mRc1NS2iaqrwV8b89fMp-172" value="return" style="html=1;verticalAlign=bottom;endArrow=open;dashed=1;endSize=8;curved=0;rounded=0;exitX=0;exitY=1;exitDx=0;exitDy=-5;exitPerimeter=0;" edge="1" parent="1" source="mRc1NS2iaqrwV8b89fMp-170" target="mRc1NS2iaqrwV8b89fMp-168">
          <mxGeometry relative="1" as="geometry">
            <mxPoint x="750" y="3666" as="sourcePoint" />
            <mxPoint x="670" y="3666" as="targetPoint" />
          </mxGeometry>
        </mxCell>
        <mxCell id="mRc1NS2iaqrwV8b89fMp-175" value="新增切片任务&lt;br style=&quot;border-color: var(--border-color);&quot;&gt;InsertChunkTask()" style="html=1;verticalAlign=bottom;endArrow=block;curved=0;rounded=0;entryX=0;entryY=0;entryDx=0;entryDy=5;" edge="1" target="mRc1NS2iaqrwV8b89fMp-174" parent="1" source="mRc1NS2iaqrwV8b89fMp-168">
          <mxGeometry relative="1" as="geometry">
            <mxPoint x="595" y="3691" as="sourcePoint" />
          </mxGeometry>
        </mxCell>
        <mxCell id="mRc1NS2iaqrwV8b89fMp-176" value="return" style="html=1;verticalAlign=bottom;endArrow=open;dashed=1;endSize=8;curved=0;rounded=0;exitX=0;exitY=1;exitDx=0;exitDy=-5;" edge="1" source="mRc1NS2iaqrwV8b89fMp-174" parent="1" target="mRc1NS2iaqrwV8b89fMp-168">
          <mxGeometry relative="1" as="geometry">
            <mxPoint x="595" y="3761" as="targetPoint" />
          </mxGeometry>
        </mxCell>
        <mxCell id="mRc1NS2iaqrwV8b89fMp-177" value="alt" style="shape=umlFrame;whiteSpace=wrap;html=1;pointerEvents=0;fillColor=#ffe6cc;strokeColor=#d79b00;" vertex="1" parent="1">
          <mxGeometry x="350" y="3806" width="590" height="90" as="geometry" />
        </mxCell>
        <mxCell id="mRc1NS2iaqrwV8b89fMp-178" value="小文件" style="text;html=1;align=center;verticalAlign=middle;resizable=0;points=[];autosize=1;strokeColor=none;fillColor=none;" vertex="1" parent="1">
          <mxGeometry x="369" y="3856" width="60" height="30" as="geometry" />
        </mxCell>
        <mxCell id="mRc1NS2iaqrwV8b89fMp-179" value="" style="html=1;points=[[0,0,0,0,5],[0,1,0,0,-5],[1,0,0,0,5],[1,1,0,0,-5]];perimeter=orthogonalPerimeter;outlineConnect=0;targetShapes=umlLifeline;portConstraint=eastwest;newEdgeStyle={&quot;curved&quot;:0,&quot;rounded&quot;:0};" vertex="1" parent="1">
          <mxGeometry x="915" y="3836" width="10" height="40" as="geometry" />
        </mxCell>
        <mxCell id="mRc1NS2iaqrwV8b89fMp-180" value="申请上传url&lt;br style=&quot;border-color: var(--border-color);&quot;&gt;GetUploadFileUrl()" style="html=1;verticalAlign=bottom;endArrow=block;curved=0;rounded=0;entryX=0;entryY=0;entryDx=0;entryDy=5;" edge="1" target="mRc1NS2iaqrwV8b89fMp-179" parent="1" source="mRc1NS2iaqrwV8b89fMp-164">
          <mxGeometry relative="1" as="geometry">
            <mxPoint x="845" y="3821" as="sourcePoint" />
          </mxGeometry>
        </mxCell>
        <mxCell id="mRc1NS2iaqrwV8b89fMp-181" value="return" style="html=1;verticalAlign=bottom;endArrow=open;dashed=1;endSize=8;curved=0;rounded=0;exitX=0;exitY=1;exitDx=0;exitDy=-5;" edge="1" source="mRc1NS2iaqrwV8b89fMp-179" parent="1" target="mRc1NS2iaqrwV8b89fMp-164">
          <mxGeometry relative="1" as="geometry">
            <mxPoint x="845" y="3891" as="targetPoint" />
          </mxGeometry>
        </mxCell>
        <mxCell id="mRc1NS2iaqrwV8b89fMp-186" value="新增下载任务&lt;br&gt;InsertFileTask()" style="html=1;verticalAlign=bottom;endArrow=block;curved=0;rounded=0;entryX=0;entryY=0;entryDx=0;entryDy=5;" edge="1" parent="1">
          <mxGeometry relative="1" as="geometry">
            <mxPoint x="455" y="3934" as="sourcePoint" />
            <mxPoint x="665" y="3934" as="targetPoint" />
            <mxPoint as="offset" />
          </mxGeometry>
        </mxCell>
        <mxCell id="mRc1NS2iaqrwV8b89fMp-187" value="return" style="html=1;verticalAlign=bottom;endArrow=open;dashed=1;endSize=8;curved=0;rounded=0;exitX=0;exitY=1;exitDx=0;exitDy=-5;" edge="1" source="mRc1NS2iaqrwV8b89fMp-185" parent="1">
          <mxGeometry relative="1" as="geometry">
            <mxPoint x="455" y="3971" as="targetPoint" />
            <mxPoint as="offset" />
          </mxGeometry>
        </mxCell>
        <mxCell id="mRc1NS2iaqrwV8b89fMp-190" value="更新上传状态&lt;br&gt;UpdateFileStatus()" style="html=1;verticalAlign=bottom;endArrow=block;curved=0;rounded=0;entryX=0;entryY=0;entryDx=0;entryDy=5;entryPerimeter=0;" edge="1" parent="1">
          <mxGeometry width="80" relative="1" as="geometry">
            <mxPoint x="455" y="4005" as="sourcePoint" />
            <mxPoint x="665" y="4005" as="targetPoint" />
          </mxGeometry>
        </mxCell>
        <mxCell id="mRc1NS2iaqrwV8b89fMp-191" value="return" style="html=1;verticalAlign=bottom;endArrow=open;dashed=1;endSize=8;curved=0;rounded=0;exitX=0;exitY=1;exitDx=0;exitDy=-5;exitPerimeter=0;" edge="1" parent="1" source="mRc1NS2iaqrwV8b89fMp-188" target="mRc1NS2iaqrwV8b89fMp-164">
          <mxGeometry relative="1" as="geometry">
            <mxPoint x="630" y="4046" as="sourcePoint" />
            <mxPoint x="550" y="4046" as="targetPoint" />
          </mxGeometry>
        </mxCell>
        <mxCell id="mRc1NS2iaqrwV8b89fMp-192" value="return" style="html=1;verticalAlign=bottom;endArrow=open;dashed=1;endSize=8;curved=0;rounded=0;exitX=0;exitY=1;exitDx=0;exitDy=-5;exitPerimeter=0;" edge="1" parent="1" source="mRc1NS2iaqrwV8b89fMp-164" target="mRc1NS2iaqrwV8b89fMp-162">
          <mxGeometry relative="1" as="geometry">
            <mxPoint x="410" y="4066" as="sourcePoint" />
            <mxPoint x="330" y="4066" as="targetPoint" />
          </mxGeometry>
        </mxCell>
        <mxCell id="mRc1NS2iaqrwV8b89fMp-193" value="return" style="html=1;verticalAlign=bottom;endArrow=open;dashed=1;endSize=8;curved=0;rounded=0;exitX=0;exitY=1;exitDx=0;exitDy=-5;exitPerimeter=0;" edge="1" parent="1" source="mRc1NS2iaqrwV8b89fMp-162" target="mRc1NS2iaqrwV8b89fMp-161">
          <mxGeometry relative="1" as="geometry">
            <mxPoint x="150" y="4096" as="sourcePoint" />
            <mxPoint x="70" y="4096" as="targetPoint" />
          </mxGeometry>
        </mxCell>
        <mxCell id="mRc1NS2iaqrwV8b89fMp-196" value="单个文件上传任务&lt;br&gt;CreateFileUploadTask()" style="html=1;verticalAlign=bottom;endArrow=block;curved=0;rounded=0;entryX=0;entryY=0;entryDx=0;entryDy=5;entryPerimeter=0;" edge="1" parent="1" source="mRc1NS2iaqrwV8b89fMp-194" target="mRc1NS2iaqrwV8b89fMp-195">
          <mxGeometry width="80" relative="1" as="geometry">
            <mxPoint x="30" y="4196" as="sourcePoint" />
            <mxPoint x="110" y="4196" as="targetPoint" />
          </mxGeometry>
        </mxCell>
        <mxCell id="mRc1NS2iaqrwV8b89fMp-197" value="1.文件块加文件&lt;br&gt;2.文件（没有url）&lt;br&gt;3.目录&lt;br&gt;&lt;br&gt;按时间正序" style="text;html=1;align=center;verticalAlign=middle;resizable=0;points=[];autosize=1;strokeColor=#b85450;fillColor=#f8cecc;" vertex="1" parent="1">
          <mxGeometry x="1178" y="2130" width="120" height="90" as="geometry" />
        </mxCell>
        <mxCell id="mRc1NS2iaqrwV8b89fMp-198" value="定时服务处理过期Url" style="text;html=1;align=center;verticalAlign=middle;resizable=0;points=[];autosize=1;strokeColor=#b85450;fillColor=#f8cecc;" vertex="1" parent="1">
          <mxGeometry x="1183" y="2330" width="130" height="30" as="geometry" />
        </mxCell>
        <mxCell id="mRc1NS2iaqrwV8b89fMp-199" value="alt" style="shape=umlFrame;whiteSpace=wrap;html=1;pointerEvents=0;fillColor=#ffe6cc;strokeColor=#d79b00;" vertex="1" parent="1">
          <mxGeometry x="164" y="670" width="866" height="70" as="geometry" />
        </mxCell>
        <mxCell id="mRc1NS2iaqrwV8b89fMp-200" value="文件块" style="text;html=1;align=center;verticalAlign=middle;resizable=0;points=[];autosize=1;strokeColor=none;fillColor=none;" vertex="1" parent="1">
          <mxGeometry x="245" y="690" width="60" height="30" as="geometry" />
        </mxCell>
        <mxCell id="mRc1NS2iaqrwV8b89fMp-201" value="alt" style="shape=umlFrame;whiteSpace=wrap;html=1;pointerEvents=0;fillColor=#ffe6cc;strokeColor=#d79b00;" vertex="1" parent="1">
          <mxGeometry x="164" y="760" width="866" height="70" as="geometry" />
        </mxCell>
        <mxCell id="mRc1NS2iaqrwV8b89fMp-202" value="文件" style="text;html=1;align=center;verticalAlign=middle;resizable=0;points=[];autosize=1;strokeColor=none;fillColor=none;" vertex="1" parent="1">
          <mxGeometry x="245" y="780" width="50" height="30" as="geometry" />
        </mxCell>
        <mxCell id="mRc1NS2iaqrwV8b89fMp-206" value="" style="html=1;points=[[0,0,0,0,5],[0,1,0,0,-5],[1,0,0,0,5],[1,1,0,0,-5]];perimeter=orthogonalPerimeter;outlineConnect=0;targetShapes=umlLifeline;portConstraint=eastwest;newEdgeStyle={&quot;curved&quot;:0,&quot;rounded&quot;:0};" vertex="1" parent="1">
          <mxGeometry x="975" y="770" width="10" height="50" as="geometry" />
        </mxCell>
        <mxCell id="mRc1NS2iaqrwV8b89fMp-207" value="上传文件到Minio&lt;br style=&quot;border-color: var(--border-color);&quot;&gt;UploadFile()" style="html=1;verticalAlign=bottom;endArrow=block;curved=0;rounded=0;entryX=0;entryY=0;entryDx=0;entryDy=5;" edge="1" parent="1">
          <mxGeometry relative="1" as="geometry">
            <mxPoint x="320" y="790" as="sourcePoint" />
            <mxPoint x="975" y="790" as="targetPoint" />
          </mxGeometry>
        </mxCell>
        <mxCell id="mRc1NS2iaqrwV8b89fMp-208" value="return 文件上传结果" style="html=1;verticalAlign=bottom;endArrow=open;dashed=1;endSize=8;curved=0;rounded=0;exitX=0;exitY=1;exitDx=0;exitDy=-5;" edge="1" source="mRc1NS2iaqrwV8b89fMp-206" parent="1" target="mRc1NS2iaqrwV8b89fMp-39">
          <mxGeometry x="0.0015" relative="1" as="geometry">
            <mxPoint x="905" y="845" as="targetPoint" />
            <mxPoint as="offset" />
          </mxGeometry>
        </mxCell>
        <mxCell id="mRc1NS2iaqrwV8b89fMp-211" value="return" style="html=1;verticalAlign=bottom;endArrow=open;dashed=1;endSize=8;curved=0;rounded=0;entryX=1;entryY=1;entryDx=0;entryDy=-5;entryPerimeter=0;" edge="1" parent="1" source="mRc1NS2iaqrwV8b89fMp-6" target="mRc1NS2iaqrwV8b89fMp-18">
          <mxGeometry relative="1" as="geometry">
            <mxPoint x="870" y="550" as="sourcePoint" />
            <mxPoint x="790" y="550" as="targetPoint" />
          </mxGeometry>
        </mxCell>
        <mxCell id="mRc1NS2iaqrwV8b89fMp-212" value="" style="html=1;points=[[0,0,0,0,5],[0,1,0,0,-5],[1,0,0,0,5],[1,1,0,0,-5]];perimeter=orthogonalPerimeter;outlineConnect=0;targetShapes=umlLifeline;portConstraint=eastwest;newEdgeStyle={&quot;curved&quot;:0,&quot;rounded&quot;:0};" vertex="1" parent="1">
          <mxGeometry x="315" y="883" width="10" height="40" as="geometry" />
        </mxCell>
        <mxCell id="mRc1NS2iaqrwV8b89fMp-213" value="CheckETag()" style="html=1;align=left;spacingLeft=2;endArrow=block;rounded=0;edgeStyle=orthogonalEdgeStyle;curved=0;rounded=0;" edge="1" target="mRc1NS2iaqrwV8b89fMp-212" parent="1">
          <mxGeometry x="0.0118" relative="1" as="geometry">
            <mxPoint x="320" y="863" as="sourcePoint" />
            <Array as="points">
              <mxPoint x="350" y="893" />
            </Array>
            <mxPoint as="offset" />
          </mxGeometry>
        </mxCell>
        <mxCell id="mRc1NS2iaqrwV8b89fMp-215" value="保存上传信息&lt;br style=&quot;border-color: var(--border-color);&quot;&gt;SaveUploadInfo（）" style="html=1;verticalAlign=bottom;endArrow=block;curved=0;rounded=0;entryX=0;entryY=0;entryDx=0;entryDy=5;" edge="1" parent="1" source="mRc1NS2iaqrwV8b89fMp-39">
          <mxGeometry relative="1" as="geometry">
            <mxPoint x="1108" y="892" as="sourcePoint" />
            <mxPoint x="1178" y="943" as="targetPoint" />
            <mxPoint as="offset" />
          </mxGeometry>
        </mxCell>
        <mxCell id="mRc1NS2iaqrwV8b89fMp-216" value="return" style="html=1;verticalAlign=bottom;endArrow=open;dashed=1;endSize=8;curved=0;rounded=0;exitX=0;exitY=1;exitDx=0;exitDy=-5;" edge="1" parent="1" target="mRc1NS2iaqrwV8b89fMp-39">
          <mxGeometry relative="1" as="geometry">
            <mxPoint x="1108" y="962" as="targetPoint" />
            <mxPoint x="1178" y="990" as="sourcePoint" />
          </mxGeometry>
        </mxCell>
        <mxCell id="mRc1NS2iaqrwV8b89fMp-217" value="上传完成" style="html=1;verticalAlign=bottom;endArrow=open;dashed=1;endSize=8;curved=0;rounded=0;" edge="1" parent="1">
          <mxGeometry relative="1" as="geometry">
            <mxPoint x="300" y="1340" as="sourcePoint" />
            <mxPoint x="130" y="1340" as="targetPoint" />
          </mxGeometry>
        </mxCell>
      </root>
    </mxGraphModel>
  </diagram>
  <diagram id="0rSQDJt9EqNEXgcmftdB" name="获取需文件上传列表">
    <mxGraphModel dx="1434" dy="-423" grid="1" gridSize="10" guides="1" tooltips="1" connect="1" arrows="1" fold="1" page="1" pageScale="1" pageWidth="827" pageHeight="1169" math="0" shadow="0">
      <root>
        <mxCell id="0" />
        <mxCell id="1" parent="0" />
        <mxCell id="JJzJAbk9jvUsvA6edLs3-1" value="UploadFileController" style="shape=umlLifeline;perimeter=lifelinePerimeter;whiteSpace=wrap;html=1;container=1;dropTarget=0;collapsible=0;recursiveResize=0;outlineConnect=0;portConstraint=eastwest;newEdgeStyle={&quot;curved&quot;:0,&quot;rounded&quot;:0};" vertex="1" parent="1">
          <mxGeometry x="120" y="1290" width="140" height="2070" as="geometry" />
        </mxCell>
        <mxCell id="JJzJAbk9jvUsvA6edLs3-2" value="" style="html=1;points=[[0,0,0,0,5],[0,1,0,0,-5],[1,0,0,0,5],[1,1,0,0,-5]];perimeter=orthogonalPerimeter;outlineConnect=0;targetShapes=umlLifeline;portConstraint=eastwest;newEdgeStyle={&quot;curved&quot;:0,&quot;rounded&quot;:0};" vertex="1" parent="JJzJAbk9jvUsvA6edLs3-1">
          <mxGeometry x="65" y="60" width="10" height="740" as="geometry" />
        </mxCell>
        <mxCell id="JJzJAbk9jvUsvA6edLs3-3" value="" style="html=1;points=[[0,0,0,0,5],[0,1,0,0,-5],[1,0,0,0,5],[1,1,0,0,-5]];perimeter=orthogonalPerimeter;outlineConnect=0;targetShapes=umlLifeline;portConstraint=eastwest;newEdgeStyle={&quot;curved&quot;:0,&quot;rounded&quot;:0};" vertex="1" parent="JJzJAbk9jvUsvA6edLs3-1">
          <mxGeometry x="65" y="1661" width="10" height="585" as="geometry" />
        </mxCell>
        <mxCell id="JJzJAbk9jvUsvA6edLs3-4" value="" style="html=1;points=[[0,0,0,0,5],[0,1,0,0,-5],[1,0,0,0,5],[1,1,0,0,-5]];perimeter=orthogonalPerimeter;outlineConnect=0;targetShapes=umlLifeline;portConstraint=eastwest;newEdgeStyle={&quot;curved&quot;:0,&quot;rounded&quot;:0};" vertex="1" parent="JJzJAbk9jvUsvA6edLs3-1">
          <mxGeometry x="65" y="2326" width="10" height="80" as="geometry" />
        </mxCell>
        <mxCell id="JJzJAbk9jvUsvA6edLs3-5" value="" style="shape=umlLifeline;perimeter=lifelinePerimeter;whiteSpace=wrap;html=1;container=1;dropTarget=0;collapsible=0;recursiveResize=0;outlineConnect=0;portConstraint=eastwest;newEdgeStyle={&quot;curved&quot;:0,&quot;rounded&quot;:0};participant=umlActor;" vertex="1" parent="1">
          <mxGeometry y="1290" width="20" height="2070" as="geometry" />
        </mxCell>
        <mxCell id="JJzJAbk9jvUsvA6edLs3-6" value="" style="html=1;points=[[0,0,0,0,5],[0,1,0,0,-5],[1,0,0,0,5],[1,1,0,0,-5]];perimeter=orthogonalPerimeter;outlineConnect=0;targetShapes=umlLifeline;portConstraint=eastwest;newEdgeStyle={&quot;curved&quot;:0,&quot;rounded&quot;:0};" vertex="1" parent="JJzJAbk9jvUsvA6edLs3-5">
          <mxGeometry x="5" y="70" width="10" height="740" as="geometry" />
        </mxCell>
        <mxCell id="JJzJAbk9jvUsvA6edLs3-7" value="" style="html=1;points=[[0,0,0,0,5],[0,1,0,0,-5],[1,0,0,0,5],[1,1,0,0,-5]];perimeter=orthogonalPerimeter;outlineConnect=0;targetShapes=umlLifeline;portConstraint=eastwest;newEdgeStyle={&quot;curved&quot;:0,&quot;rounded&quot;:0};" vertex="1" parent="JJzJAbk9jvUsvA6edLs3-5">
          <mxGeometry x="5" y="1656" width="10" height="610" as="geometry" />
        </mxCell>
        <mxCell id="JJzJAbk9jvUsvA6edLs3-8" value="" style="html=1;points=[[0,0,0,0,5],[0,1,0,0,-5],[1,0,0,0,5],[1,1,0,0,-5]];perimeter=orthogonalPerimeter;outlineConnect=0;targetShapes=umlLifeline;portConstraint=eastwest;newEdgeStyle={&quot;curved&quot;:0,&quot;rounded&quot;:0};" vertex="1" parent="JJzJAbk9jvUsvA6edLs3-5">
          <mxGeometry x="5" y="2316" width="10" height="80" as="geometry" />
        </mxCell>
        <mxCell id="JJzJAbk9jvUsvA6edLs3-9" value="UploadFileService" style="shape=umlLifeline;perimeter=lifelinePerimeter;whiteSpace=wrap;html=1;container=1;dropTarget=0;collapsible=0;recursiveResize=0;outlineConnect=0;portConstraint=eastwest;newEdgeStyle={&quot;curved&quot;:0,&quot;rounded&quot;:0};" vertex="1" parent="1">
          <mxGeometry x="370" y="1290" width="140" height="1630" as="geometry" />
        </mxCell>
        <mxCell id="JJzJAbk9jvUsvA6edLs3-10" value="" style="html=1;points=[[0,0,0,0,5],[0,1,0,0,-5],[1,0,0,0,5],[1,1,0,0,-5]];perimeter=orthogonalPerimeter;outlineConnect=0;targetShapes=umlLifeline;portConstraint=eastwest;newEdgeStyle={&quot;curved&quot;:0,&quot;rounded&quot;:0};" vertex="1" parent="JJzJAbk9jvUsvA6edLs3-9">
          <mxGeometry x="65" y="100" width="10" height="670" as="geometry" />
        </mxCell>
        <mxCell id="JJzJAbk9jvUsvA6edLs3-11" value="" style="html=1;points=[[0,0,0,0,5],[0,1,0,0,-5],[1,0,0,0,5],[1,1,0,0,-5]];perimeter=orthogonalPerimeter;outlineConnect=0;targetShapes=umlLifeline;portConstraint=eastwest;newEdgeStyle={&quot;curved&quot;:0,&quot;rounded&quot;:0};" vertex="1" parent="JJzJAbk9jvUsvA6edLs3-9">
          <mxGeometry x="65" y="1676" width="10" height="540" as="geometry" />
        </mxCell>
        <mxCell id="9ja4TOLDxON-DeZDQ-kq-11" value="" style="html=1;points=[[0,0,0,0,5],[0,1,0,0,-5],[1,0,0,0,5],[1,1,0,0,-5]];perimeter=orthogonalPerimeter;outlineConnect=0;targetShapes=umlLifeline;portConstraint=eastwest;newEdgeStyle={&quot;curved&quot;:0,&quot;rounded&quot;:0};" vertex="1" parent="JJzJAbk9jvUsvA6edLs3-9">
          <mxGeometry x="70" y="144" width="10" height="40" as="geometry" />
        </mxCell>
        <mxCell id="9ja4TOLDxON-DeZDQ-kq-12" value="判断是否需要排队等待&lt;br&gt;cancelTaskWait（）" style="html=1;align=left;spacingLeft=2;endArrow=block;rounded=0;edgeStyle=orthogonalEdgeStyle;curved=0;rounded=0;" edge="1" target="9ja4TOLDxON-DeZDQ-kq-11" parent="JJzJAbk9jvUsvA6edLs3-9">
          <mxGeometry relative="1" as="geometry">
            <mxPoint x="75" y="124" as="sourcePoint" />
            <Array as="points">
              <mxPoint x="105" y="154" />
            </Array>
          </mxGeometry>
        </mxCell>
        <mxCell id="JJzJAbk9jvUsvA6edLs3-12" value="UploadFileMapper" style="shape=umlLifeline;perimeter=lifelinePerimeter;whiteSpace=wrap;html=1;container=1;dropTarget=0;collapsible=0;recursiveResize=0;outlineConnect=0;portConstraint=eastwest;newEdgeStyle={&quot;curved&quot;:0,&quot;rounded&quot;:0};" vertex="1" parent="1">
          <mxGeometry x="590" y="1290" width="140" height="1650" as="geometry" />
        </mxCell>
        <mxCell id="JJzJAbk9jvUsvA6edLs3-13" value="" style="html=1;points=[[0,0,0,0,5],[0,1,0,0,-5],[1,0,0,0,5],[1,1,0,0,-5]];perimeter=orthogonalPerimeter;outlineConnect=0;targetShapes=umlLifeline;portConstraint=eastwest;newEdgeStyle={&quot;curved&quot;:0,&quot;rounded&quot;:0};" vertex="1" parent="JJzJAbk9jvUsvA6edLs3-12">
          <mxGeometry x="65" y="240" width="10" height="50" as="geometry" />
        </mxCell>
        <mxCell id="JJzJAbk9jvUsvA6edLs3-14" value="" style="html=1;points=[[0,0,0,0,5],[0,1,0,0,-5],[1,0,0,0,5],[1,1,0,0,-5]];perimeter=orthogonalPerimeter;outlineConnect=0;targetShapes=umlLifeline;portConstraint=eastwest;newEdgeStyle={&quot;curved&quot;:0,&quot;rounded&quot;:0};" vertex="1" parent="JJzJAbk9jvUsvA6edLs3-12">
          <mxGeometry x="65" y="1845" width="10" height="60" as="geometry" />
        </mxCell>
        <mxCell id="JJzJAbk9jvUsvA6edLs3-15" value="" style="html=1;points=[[0,0,0,0,5],[0,1,0,0,-5],[1,0,0,0,5],[1,1,0,0,-5]];perimeter=orthogonalPerimeter;outlineConnect=0;targetShapes=umlLifeline;portConstraint=eastwest;newEdgeStyle={&quot;curved&quot;:0,&quot;rounded&quot;:0};" vertex="1" parent="JJzJAbk9jvUsvA6edLs3-12">
          <mxGeometry x="65" y="2066" width="10" height="50" as="geometry" />
        </mxCell>
        <mxCell id="JJzJAbk9jvUsvA6edLs3-16" value="" style="html=1;points=[[0,0,0,0,5],[0,1,0,0,-5],[1,0,0,0,5],[1,1,0,0,-5]];perimeter=orthogonalPerimeter;outlineConnect=0;targetShapes=umlLifeline;portConstraint=eastwest;newEdgeStyle={&quot;curved&quot;:0,&quot;rounded&quot;:0};" vertex="1" parent="JJzJAbk9jvUsvA6edLs3-12">
          <mxGeometry x="65" y="2138" width="10" height="48" as="geometry" />
        </mxCell>
        <mxCell id="JJzJAbk9jvUsvA6edLs3-17" value="&lt;h1&gt;服务端&lt;/h1&gt;&lt;p&gt;&lt;br&gt;&lt;/p&gt;" style="text;html=1;strokeColor=none;fillColor=none;spacing=5;spacingTop=-20;whiteSpace=wrap;overflow=hidden;rounded=0;" vertex="1" parent="1">
          <mxGeometry x="527" y="1190" width="190" height="40" as="geometry" />
        </mxCell>
        <mxCell id="JJzJAbk9jvUsvA6edLs3-18" value="获取需文件上传列表&lt;br style=&quot;border-color: var(--border-color);&quot;&gt;GetUploadList()" style="html=1;verticalAlign=bottom;endArrow=block;curved=0;rounded=0;exitX=1;exitY=0;exitDx=0;exitDy=5;exitPerimeter=0;" edge="1" parent="1" source="JJzJAbk9jvUsvA6edLs3-6" target="JJzJAbk9jvUsvA6edLs3-2">
          <mxGeometry width="80" relative="1" as="geometry">
            <mxPoint x="40" y="1370" as="sourcePoint" />
            <mxPoint x="160" y="1370" as="targetPoint" />
            <mxPoint as="offset" />
          </mxGeometry>
        </mxCell>
        <mxCell id="JJzJAbk9jvUsvA6edLs3-19" value="根据机器码获取备份文件列表&lt;br&gt;GetUploadList()" style="html=1;verticalAlign=bottom;endArrow=block;curved=0;rounded=0;" edge="1" parent="1">
          <mxGeometry width="80" relative="1" as="geometry">
            <mxPoint x="195" y="1404" as="sourcePoint" />
            <mxPoint x="435" y="1404" as="targetPoint" />
            <mxPoint as="offset" />
          </mxGeometry>
        </mxCell>
        <mxCell id="JJzJAbk9jvUsvA6edLs3-21" value="根据机器码获取待上传的文件列表&lt;br style=&quot;border-color: var(--border-color);&quot;&gt;GetUploadList()" style="html=1;verticalAlign=bottom;endArrow=block;curved=0;rounded=0;entryX=0;entryY=0;entryDx=0;entryDy=5;" edge="1" parent="1" target="JJzJAbk9jvUsvA6edLs3-13">
          <mxGeometry relative="1" as="geometry">
            <mxPoint x="445" y="1535" as="sourcePoint" />
            <mxPoint as="offset" />
          </mxGeometry>
        </mxCell>
        <mxCell id="JJzJAbk9jvUsvA6edLs3-22" value="return" style="html=1;verticalAlign=bottom;endArrow=open;dashed=1;endSize=8;curved=0;rounded=0;exitX=0;exitY=1;exitDx=0;exitDy=-5;" edge="1" parent="1" source="JJzJAbk9jvUsvA6edLs3-13">
          <mxGeometry relative="1" as="geometry">
            <mxPoint x="445" y="1575" as="targetPoint" />
          </mxGeometry>
        </mxCell>
        <mxCell id="JJzJAbk9jvUsvA6edLs3-26" value="MinioServerr" style="shape=umlLifeline;perimeter=lifelinePerimeter;whiteSpace=wrap;html=1;container=1;dropTarget=0;collapsible=0;recursiveResize=0;outlineConnect=0;portConstraint=eastwest;newEdgeStyle={&quot;curved&quot;:0,&quot;rounded&quot;:0};" vertex="1" parent="1">
          <mxGeometry x="840" y="1290" width="140" height="1680" as="geometry" />
        </mxCell>
        <mxCell id="JJzJAbk9jvUsvA6edLs3-28" value="RedisKeyUtil" style="shape=umlLifeline;perimeter=lifelinePerimeter;whiteSpace=wrap;html=1;container=1;dropTarget=0;collapsible=0;recursiveResize=0;outlineConnect=0;portConstraint=eastwest;newEdgeStyle={&quot;curved&quot;:0,&quot;rounded&quot;:0};" vertex="1" parent="1">
          <mxGeometry x="1090" y="1287" width="140" height="1340" as="geometry" />
        </mxCell>
        <mxCell id="JJzJAbk9jvUsvA6edLs3-29" value="" style="html=1;points=[[0,0,0,0,5],[0,1,0,0,-5],[1,0,0,0,5],[1,1,0,0,-5]];perimeter=orthogonalPerimeter;outlineConnect=0;targetShapes=umlLifeline;portConstraint=eastwest;newEdgeStyle={&quot;curved&quot;:0,&quot;rounded&quot;:0};" vertex="1" parent="JJzJAbk9jvUsvA6edLs3-28">
          <mxGeometry x="65" y="825" width="10" height="44" as="geometry" />
        </mxCell>
        <mxCell id="JJzJAbk9jvUsvA6edLs3-45" value="排除切片过的文件" style="text;html=1;align=center;verticalAlign=middle;resizable=0;points=[];autosize=1;strokeColor=#b85450;fillColor=#f8cecc;" vertex="1" parent="1">
          <mxGeometry x="495" y="1340" width="120" height="30" as="geometry" />
        </mxCell>
        <mxCell id="JJzJAbk9jvUsvA6edLs3-57" value="保存目录信息&lt;br&gt;UploadFolderInfo()" style="html=1;verticalAlign=bottom;endArrow=block;curved=0;rounded=0;" edge="1" parent="1">
          <mxGeometry x="-0.25" width="80" relative="1" as="geometry">
            <mxPoint x="15" y="2962" as="sourcePoint" />
            <mxPoint x="185" y="2962" as="targetPoint" />
            <mxPoint as="offset" />
          </mxGeometry>
        </mxCell>
        <mxCell id="JJzJAbk9jvUsvA6edLs3-58" value="保存目录信息&lt;br style=&quot;border-color: var(--border-color);&quot;&gt;UploadFolderInfo()" style="html=1;verticalAlign=bottom;endArrow=block;curved=0;rounded=0;entryX=0;entryY=0;entryDx=0;entryDy=5;entryPerimeter=0;" edge="1" parent="1" source="JJzJAbk9jvUsvA6edLs3-3" target="JJzJAbk9jvUsvA6edLs3-11">
          <mxGeometry width="80" relative="1" as="geometry">
            <mxPoint x="240" y="2976" as="sourcePoint" />
            <mxPoint x="320" y="2976" as="targetPoint" />
            <mxPoint as="offset" />
          </mxGeometry>
        </mxCell>
        <mxCell id="JJzJAbk9jvUsvA6edLs3-59" value="alt" style="shape=umlFrame;whiteSpace=wrap;html=1;pointerEvents=0;fillColor=#ffe6cc;strokeColor=#d79b00;" vertex="1" parent="1">
          <mxGeometry x="340" y="2986" width="590" height="240" as="geometry" />
        </mxCell>
        <mxCell id="JJzJAbk9jvUsvA6edLs3-60" value="大文件" style="text;html=1;align=center;verticalAlign=middle;resizable=0;points=[];autosize=1;strokeColor=none;fillColor=none;" vertex="1" parent="1">
          <mxGeometry x="355" y="3036" width="60" height="30" as="geometry" />
        </mxCell>
        <mxCell id="JJzJAbk9jvUsvA6edLs3-61" value="" style="html=1;points=[[0,0,0,0,5],[0,1,0,0,-5],[1,0,0,0,5],[1,1,0,0,-5]];perimeter=orthogonalPerimeter;outlineConnect=0;targetShapes=umlLifeline;portConstraint=eastwest;newEdgeStyle={&quot;curved&quot;:0,&quot;rounded&quot;:0};" vertex="1" parent="1">
          <mxGeometry x="440" y="3021" width="10" height="185" as="geometry" />
        </mxCell>
        <mxCell id="JJzJAbk9jvUsvA6edLs3-62" value="文件切片&lt;br&gt;FileChunk()" style="html=1;align=left;spacingLeft=2;endArrow=block;rounded=0;edgeStyle=orthogonalEdgeStyle;curved=0;rounded=0;" edge="1" parent="1" target="JJzJAbk9jvUsvA6edLs3-61">
          <mxGeometry relative="1" as="geometry">
            <mxPoint x="445" y="3001" as="sourcePoint" />
            <Array as="points">
              <mxPoint x="475" y="3031" />
            </Array>
          </mxGeometry>
        </mxCell>
        <mxCell id="JJzJAbk9jvUsvA6edLs3-63" value="" style="html=1;points=[[0,0,0,0,5],[0,1,0,0,-5],[1,0,0,0,5],[1,1,0,0,-5]];perimeter=orthogonalPerimeter;outlineConnect=0;targetShapes=umlLifeline;portConstraint=eastwest;newEdgeStyle={&quot;curved&quot;:0,&quot;rounded&quot;:0};" vertex="1" parent="1">
          <mxGeometry x="905" y="3050" width="10" height="56" as="geometry" />
        </mxCell>
        <mxCell id="JJzJAbk9jvUsvA6edLs3-64" value="文件切片申请Url&lt;br style=&quot;border-color: var(--border-color);&quot;&gt;GetUploadChunkUrl()" style="html=1;verticalAlign=bottom;endArrow=block;curved=0;rounded=0;" edge="1" parent="1">
          <mxGeometry width="80" relative="1" as="geometry">
            <mxPoint x="450" y="3057" as="sourcePoint" />
            <mxPoint x="905" y="3057" as="targetPoint" />
          </mxGeometry>
        </mxCell>
        <mxCell id="JJzJAbk9jvUsvA6edLs3-65" value="return" style="html=1;verticalAlign=bottom;endArrow=open;dashed=1;endSize=8;curved=0;rounded=0;exitX=0;exitY=1;exitDx=0;exitDy=-5;exitPerimeter=0;" edge="1" parent="1" source="JJzJAbk9jvUsvA6edLs3-63" target="JJzJAbk9jvUsvA6edLs3-61">
          <mxGeometry relative="1" as="geometry">
            <mxPoint x="740" y="3096" as="sourcePoint" />
            <mxPoint x="660" y="3096" as="targetPoint" />
          </mxGeometry>
        </mxCell>
        <mxCell id="JJzJAbk9jvUsvA6edLs3-66" value="新增切片任务&lt;br style=&quot;border-color: var(--border-color);&quot;&gt;InsertChunkTask()" style="html=1;verticalAlign=bottom;endArrow=block;curved=0;rounded=0;entryX=0;entryY=0;entryDx=0;entryDy=5;" edge="1" parent="1" source="JJzJAbk9jvUsvA6edLs3-61" target="JJzJAbk9jvUsvA6edLs3-14">
          <mxGeometry relative="1" as="geometry">
            <mxPoint x="585" y="3121" as="sourcePoint" />
          </mxGeometry>
        </mxCell>
        <mxCell id="JJzJAbk9jvUsvA6edLs3-67" value="return" style="html=1;verticalAlign=bottom;endArrow=open;dashed=1;endSize=8;curved=0;rounded=0;exitX=0;exitY=1;exitDx=0;exitDy=-5;" edge="1" parent="1" source="JJzJAbk9jvUsvA6edLs3-14" target="JJzJAbk9jvUsvA6edLs3-61">
          <mxGeometry relative="1" as="geometry">
            <mxPoint x="585" y="3191" as="targetPoint" />
          </mxGeometry>
        </mxCell>
        <mxCell id="JJzJAbk9jvUsvA6edLs3-68" value="alt" style="shape=umlFrame;whiteSpace=wrap;html=1;pointerEvents=0;fillColor=#ffe6cc;strokeColor=#d79b00;" vertex="1" parent="1">
          <mxGeometry x="340" y="3236" width="590" height="90" as="geometry" />
        </mxCell>
        <mxCell id="JJzJAbk9jvUsvA6edLs3-69" value="小文件" style="text;html=1;align=center;verticalAlign=middle;resizable=0;points=[];autosize=1;strokeColor=none;fillColor=none;" vertex="1" parent="1">
          <mxGeometry x="359" y="3286" width="60" height="30" as="geometry" />
        </mxCell>
        <mxCell id="JJzJAbk9jvUsvA6edLs3-70" value="" style="html=1;points=[[0,0,0,0,5],[0,1,0,0,-5],[1,0,0,0,5],[1,1,0,0,-5]];perimeter=orthogonalPerimeter;outlineConnect=0;targetShapes=umlLifeline;portConstraint=eastwest;newEdgeStyle={&quot;curved&quot;:0,&quot;rounded&quot;:0};" vertex="1" parent="1">
          <mxGeometry x="905" y="3266" width="10" height="40" as="geometry" />
        </mxCell>
        <mxCell id="JJzJAbk9jvUsvA6edLs3-71" value="申请上传url&lt;br style=&quot;border-color: var(--border-color);&quot;&gt;GetUploadFileUrl()" style="html=1;verticalAlign=bottom;endArrow=block;curved=0;rounded=0;entryX=0;entryY=0;entryDx=0;entryDy=5;" edge="1" parent="1" source="JJzJAbk9jvUsvA6edLs3-11" target="JJzJAbk9jvUsvA6edLs3-70">
          <mxGeometry relative="1" as="geometry">
            <mxPoint x="835" y="3251" as="sourcePoint" />
          </mxGeometry>
        </mxCell>
        <mxCell id="JJzJAbk9jvUsvA6edLs3-72" value="return" style="html=1;verticalAlign=bottom;endArrow=open;dashed=1;endSize=8;curved=0;rounded=0;exitX=0;exitY=1;exitDx=0;exitDy=-5;" edge="1" parent="1" source="JJzJAbk9jvUsvA6edLs3-70" target="JJzJAbk9jvUsvA6edLs3-11">
          <mxGeometry relative="1" as="geometry">
            <mxPoint x="835" y="3321" as="targetPoint" />
          </mxGeometry>
        </mxCell>
        <mxCell id="JJzJAbk9jvUsvA6edLs3-73" value="新增下载任务&lt;br&gt;InsertFileTask()" style="html=1;verticalAlign=bottom;endArrow=block;curved=0;rounded=0;entryX=0;entryY=0;entryDx=0;entryDy=5;" edge="1" parent="1">
          <mxGeometry relative="1" as="geometry">
            <mxPoint x="445" y="3364" as="sourcePoint" />
            <mxPoint x="655" y="3364" as="targetPoint" />
            <mxPoint as="offset" />
          </mxGeometry>
        </mxCell>
        <mxCell id="JJzJAbk9jvUsvA6edLs3-74" value="return" style="html=1;verticalAlign=bottom;endArrow=open;dashed=1;endSize=8;curved=0;rounded=0;exitX=0;exitY=1;exitDx=0;exitDy=-5;" edge="1" parent="1" source="JJzJAbk9jvUsvA6edLs3-15">
          <mxGeometry relative="1" as="geometry">
            <mxPoint x="445" y="3401" as="targetPoint" />
            <mxPoint as="offset" />
          </mxGeometry>
        </mxCell>
        <mxCell id="JJzJAbk9jvUsvA6edLs3-75" value="更新上传状态&lt;br&gt;UpdateFileStatus()" style="html=1;verticalAlign=bottom;endArrow=block;curved=0;rounded=0;entryX=0;entryY=0;entryDx=0;entryDy=5;entryPerimeter=0;" edge="1" parent="1">
          <mxGeometry width="80" relative="1" as="geometry">
            <mxPoint x="445" y="3435" as="sourcePoint" />
            <mxPoint x="655" y="3435" as="targetPoint" />
          </mxGeometry>
        </mxCell>
        <mxCell id="JJzJAbk9jvUsvA6edLs3-76" value="return" style="html=1;verticalAlign=bottom;endArrow=open;dashed=1;endSize=8;curved=0;rounded=0;exitX=0;exitY=1;exitDx=0;exitDy=-5;exitPerimeter=0;" edge="1" parent="1" source="JJzJAbk9jvUsvA6edLs3-16" target="JJzJAbk9jvUsvA6edLs3-11">
          <mxGeometry relative="1" as="geometry">
            <mxPoint x="620" y="3476" as="sourcePoint" />
            <mxPoint x="540" y="3476" as="targetPoint" />
          </mxGeometry>
        </mxCell>
        <mxCell id="JJzJAbk9jvUsvA6edLs3-77" value="return" style="html=1;verticalAlign=bottom;endArrow=open;dashed=1;endSize=8;curved=0;rounded=0;exitX=0;exitY=1;exitDx=0;exitDy=-5;exitPerimeter=0;" edge="1" parent="1" source="JJzJAbk9jvUsvA6edLs3-11" target="JJzJAbk9jvUsvA6edLs3-3">
          <mxGeometry relative="1" as="geometry">
            <mxPoint x="400" y="3496" as="sourcePoint" />
            <mxPoint x="320" y="3496" as="targetPoint" />
          </mxGeometry>
        </mxCell>
        <mxCell id="JJzJAbk9jvUsvA6edLs3-78" value="return" style="html=1;verticalAlign=bottom;endArrow=open;dashed=1;endSize=8;curved=0;rounded=0;exitX=0;exitY=1;exitDx=0;exitDy=-5;exitPerimeter=0;" edge="1" parent="1" source="JJzJAbk9jvUsvA6edLs3-3" target="JJzJAbk9jvUsvA6edLs3-7">
          <mxGeometry relative="1" as="geometry">
            <mxPoint x="140" y="3526" as="sourcePoint" />
            <mxPoint x="60" y="3526" as="targetPoint" />
          </mxGeometry>
        </mxCell>
        <mxCell id="JJzJAbk9jvUsvA6edLs3-79" value="单个文件上传任务&lt;br&gt;CreateFileUploadTask()" style="html=1;verticalAlign=bottom;endArrow=block;curved=0;rounded=0;entryX=0;entryY=0;entryDx=0;entryDy=5;entryPerimeter=0;" edge="1" parent="1" source="JJzJAbk9jvUsvA6edLs3-8" target="JJzJAbk9jvUsvA6edLs3-4">
          <mxGeometry width="80" relative="1" as="geometry">
            <mxPoint x="20" y="3626" as="sourcePoint" />
            <mxPoint x="100" y="3626" as="targetPoint" />
          </mxGeometry>
        </mxCell>
        <mxCell id="JJzJAbk9jvUsvA6edLs3-80" value="1.文件块加文件&lt;br&gt;2.文件（没有url）&lt;br&gt;3.目录&lt;br&gt;&lt;br&gt;按时间正序，&lt;br&gt;查询前30条数据" style="text;html=1;align=center;verticalAlign=middle;resizable=0;points=[];autosize=1;strokeColor=#b85450;fillColor=#f8cecc;" vertex="1" parent="1">
          <mxGeometry x="40" y="1682" width="120" height="100" as="geometry" />
        </mxCell>
        <mxCell id="Zp0JcBaRo6JaMO8TUPli-1" value="" style="html=1;points=[[0,0,0,0,5],[0,1,0,0,-5],[1,0,0,0,5],[1,1,0,0,-5]];perimeter=orthogonalPerimeter;outlineConnect=0;targetShapes=umlLifeline;portConstraint=eastwest;newEdgeStyle={&quot;curved&quot;:0,&quot;rounded&quot;:0};" vertex="1" parent="1">
          <mxGeometry x="1155" y="1839.5" width="10" height="44" as="geometry" />
        </mxCell>
        <mxCell id="Zp0JcBaRo6JaMO8TUPli-2" value="" style="html=1;points=[[0,0,0,0,5],[0,1,0,0,-5],[1,0,0,0,5],[1,1,0,0,-5]];perimeter=orthogonalPerimeter;outlineConnect=0;targetShapes=umlLifeline;portConstraint=eastwest;newEdgeStyle={&quot;curved&quot;:0,&quot;rounded&quot;:0};" vertex="1" parent="1">
          <mxGeometry x="1155" y="1698.5" width="10" height="54" as="geometry" />
        </mxCell>
        <mxCell id="Zp0JcBaRo6JaMO8TUPli-3" value="设置文件上传中状态&lt;br&gt;SetUploadingKey()" style="html=1;verticalAlign=bottom;endArrow=block;curved=0;rounded=0;" edge="1" parent="1">
          <mxGeometry width="80" relative="1" as="geometry">
            <mxPoint x="445" y="1865.5" as="sourcePoint" />
            <mxPoint x="1155" y="1865.5" as="targetPoint" />
          </mxGeometry>
        </mxCell>
        <mxCell id="Zp0JcBaRo6JaMO8TUPli-4" value="alt" style="shape=umlFrame;whiteSpace=wrap;html=1;pointerEvents=0;fillColor=#ffe6cc;strokeColor=#d79b00;" vertex="1" parent="1">
          <mxGeometry x="369" y="1756.5" width="191" height="90" as="geometry" />
        </mxCell>
        <mxCell id="Zp0JcBaRo6JaMO8TUPli-5" value="文件&lt;br&gt;上传中" style="text;html=1;align=center;verticalAlign=middle;resizable=0;points=[];autosize=1;strokeColor=none;fillColor=none;" vertex="1" parent="1">
          <mxGeometry x="470" y="1781.5" width="60" height="40" as="geometry" />
        </mxCell>
        <mxCell id="Zp0JcBaRo6JaMO8TUPli-6" value="检查文件是否上传中&lt;br&gt;CheckUploading()" style="html=1;verticalAlign=bottom;endArrow=block;curved=0;rounded=0;" edge="1" parent="1">
          <mxGeometry width="80" relative="1" as="geometry">
            <mxPoint x="445" y="1721.5" as="sourcePoint" />
            <mxPoint x="1155" y="1721.5" as="targetPoint" />
          </mxGeometry>
        </mxCell>
        <mxCell id="Zp0JcBaRo6JaMO8TUPli-7" value="return" style="html=1;verticalAlign=bottom;endArrow=open;dashed=1;endSize=8;curved=0;rounded=0;exitX=0;exitY=1;exitDx=0;exitDy=-5;exitPerimeter=0;" edge="1" parent="1">
          <mxGeometry relative="1" as="geometry">
            <mxPoint x="1155" y="1740.5" as="sourcePoint" />
            <mxPoint x="445" y="1740.5" as="targetPoint" />
          </mxGeometry>
        </mxCell>
        <mxCell id="Zp0JcBaRo6JaMO8TUPli-8" value="跳过本次循环不上传" style="html=1;verticalAlign=bottom;endArrow=open;dashed=1;endSize=8;curved=0;rounded=0;" edge="1" parent="1">
          <mxGeometry x="0.0074" relative="1" as="geometry">
            <mxPoint x="435" y="1835.5" as="sourcePoint" />
            <mxPoint x="195" y="1835.5" as="targetPoint" />
            <mxPoint as="offset" />
          </mxGeometry>
        </mxCell>
        <mxCell id="Zp0JcBaRo6JaMO8TUPli-9" value="alt" style="shape=umlFrame;whiteSpace=wrap;html=1;pointerEvents=0;fillColor=#ffe6cc;strokeColor=#d79b00;" vertex="1" parent="1">
          <mxGeometry x="280" y="1682" width="930" height="203.5" as="geometry" />
        </mxCell>
        <mxCell id="Zp0JcBaRo6JaMO8TUPli-10" value="文件&lt;br&gt;并且有Url" style="text;html=1;align=center;verticalAlign=middle;resizable=0;points=[];autosize=1;strokeColor=none;fillColor=none;" vertex="1" parent="1">
          <mxGeometry x="285" y="1725.5" width="70" height="40" as="geometry" />
        </mxCell>
        <mxCell id="O3gDqTAojJh5oQfnwWVn-2" value="return" style="html=1;verticalAlign=bottom;endArrow=open;dashed=1;endSize=8;curved=0;rounded=0;" edge="1" parent="1">
          <mxGeometry relative="1" as="geometry">
            <mxPoint x="435" y="1901" as="sourcePoint" />
            <mxPoint x="195" y="1901" as="targetPoint" />
          </mxGeometry>
        </mxCell>
        <mxCell id="O3gDqTAojJh5oQfnwWVn-3" value="return" style="html=1;verticalAlign=bottom;endArrow=open;dashed=1;endSize=8;curved=0;rounded=0;" edge="1" parent="1">
          <mxGeometry relative="1" as="geometry">
            <mxPoint x="185" y="1926" as="sourcePoint" />
            <mxPoint x="15" y="1926" as="targetPoint" />
          </mxGeometry>
        </mxCell>
        <mxCell id="9ja4TOLDxON-DeZDQ-kq-1" value="alt" style="shape=umlFrame;whiteSpace=wrap;html=1;pointerEvents=0;fillColor=#ffe6cc;strokeColor=#d79b00;" vertex="1" parent="1">
          <mxGeometry x="290" y="1434" width="890" height="70" as="geometry" />
        </mxCell>
        <mxCell id="9ja4TOLDxON-DeZDQ-kq-2" value="任务排队" style="text;html=1;align=center;verticalAlign=middle;resizable=0;points=[];autosize=1;strokeColor=none;fillColor=none;" vertex="1" parent="1">
          <mxGeometry x="350" y="1444" width="70" height="30" as="geometry" />
        </mxCell>
        <mxCell id="9ja4TOLDxON-DeZDQ-kq-4" value="return" style="html=1;verticalAlign=bottom;endArrow=open;dashed=1;endSize=8;curved=0;rounded=0;" edge="1" parent="1">
          <mxGeometry relative="1" as="geometry">
            <mxPoint x="435" y="1488" as="sourcePoint" />
            <mxPoint x="195" y="1488" as="targetPoint" />
          </mxGeometry>
        </mxCell>
      </root>
    </mxGraphModel>
  </diagram>
  <diagram id="HIFSAjBmGCOi8S78gNFj" name="上传Url校验【定时服务】">
    <mxGraphModel dx="1434" dy="-423" grid="1" gridSize="10" guides="1" tooltips="1" connect="1" arrows="1" fold="1" page="1" pageScale="1" pageWidth="827" pageHeight="1169" math="0" shadow="0">
      <root>
        <mxCell id="0" />
        <mxCell id="1" parent="0" />
        <mxCell id="L-IzNHUb7uaQ6YFya1cQ-1" value="UploadFileController" style="shape=umlLifeline;perimeter=lifelinePerimeter;whiteSpace=wrap;html=1;container=1;dropTarget=0;collapsible=0;recursiveResize=0;outlineConnect=0;portConstraint=eastwest;newEdgeStyle={&quot;curved&quot;:0,&quot;rounded&quot;:0};" vertex="1" parent="1">
          <mxGeometry x="120" y="1290" width="140" height="2070" as="geometry" />
        </mxCell>
        <mxCell id="L-IzNHUb7uaQ6YFya1cQ-3" value="" style="html=1;points=[[0,0,0,0,5],[0,1,0,0,-5],[1,0,0,0,5],[1,1,0,0,-5]];perimeter=orthogonalPerimeter;outlineConnect=0;targetShapes=umlLifeline;portConstraint=eastwest;newEdgeStyle={&quot;curved&quot;:0,&quot;rounded&quot;:0};" vertex="1" parent="L-IzNHUb7uaQ6YFya1cQ-1">
          <mxGeometry x="65" y="1661" width="10" height="585" as="geometry" />
        </mxCell>
        <mxCell id="L-IzNHUb7uaQ6YFya1cQ-4" value="" style="html=1;points=[[0,0,0,0,5],[0,1,0,0,-5],[1,0,0,0,5],[1,1,0,0,-5]];perimeter=orthogonalPerimeter;outlineConnect=0;targetShapes=umlLifeline;portConstraint=eastwest;newEdgeStyle={&quot;curved&quot;:0,&quot;rounded&quot;:0};" vertex="1" parent="L-IzNHUb7uaQ6YFya1cQ-1">
          <mxGeometry x="65" y="2326" width="10" height="80" as="geometry" />
        </mxCell>
        <mxCell id="L-IzNHUb7uaQ6YFya1cQ-5" value="" style="shape=umlLifeline;perimeter=lifelinePerimeter;whiteSpace=wrap;html=1;container=1;dropTarget=0;collapsible=0;recursiveResize=0;outlineConnect=0;portConstraint=eastwest;newEdgeStyle={&quot;curved&quot;:0,&quot;rounded&quot;:0};participant=umlActor;" vertex="1" parent="1">
          <mxGeometry y="1290" width="20" height="2070" as="geometry" />
        </mxCell>
        <mxCell id="L-IzNHUb7uaQ6YFya1cQ-7" value="" style="html=1;points=[[0,0,0,0,5],[0,1,0,0,-5],[1,0,0,0,5],[1,1,0,0,-5]];perimeter=orthogonalPerimeter;outlineConnect=0;targetShapes=umlLifeline;portConstraint=eastwest;newEdgeStyle={&quot;curved&quot;:0,&quot;rounded&quot;:0};" vertex="1" parent="L-IzNHUb7uaQ6YFya1cQ-5">
          <mxGeometry x="5" y="1656" width="10" height="610" as="geometry" />
        </mxCell>
        <mxCell id="L-IzNHUb7uaQ6YFya1cQ-8" value="" style="html=1;points=[[0,0,0,0,5],[0,1,0,0,-5],[1,0,0,0,5],[1,1,0,0,-5]];perimeter=orthogonalPerimeter;outlineConnect=0;targetShapes=umlLifeline;portConstraint=eastwest;newEdgeStyle={&quot;curved&quot;:0,&quot;rounded&quot;:0};" vertex="1" parent="L-IzNHUb7uaQ6YFya1cQ-5">
          <mxGeometry x="5" y="2316" width="10" height="80" as="geometry" />
        </mxCell>
        <mxCell id="L-IzNHUb7uaQ6YFya1cQ-10" value="UploadFileService" style="shape=umlLifeline;perimeter=lifelinePerimeter;whiteSpace=wrap;html=1;container=1;dropTarget=0;collapsible=0;recursiveResize=0;outlineConnect=0;portConstraint=eastwest;newEdgeStyle={&quot;curved&quot;:0,&quot;rounded&quot;:0};" vertex="1" parent="1">
          <mxGeometry x="370" y="1290" width="140" height="1630" as="geometry" />
        </mxCell>
        <mxCell id="L-IzNHUb7uaQ6YFya1cQ-12" value="" style="html=1;points=[[0,0,0,0,5],[0,1,0,0,-5],[1,0,0,0,5],[1,1,0,0,-5]];perimeter=orthogonalPerimeter;outlineConnect=0;targetShapes=umlLifeline;portConstraint=eastwest;newEdgeStyle={&quot;curved&quot;:0,&quot;rounded&quot;:0};" vertex="1" parent="L-IzNHUb7uaQ6YFya1cQ-10">
          <mxGeometry x="65" y="1676" width="10" height="540" as="geometry" />
        </mxCell>
        <mxCell id="L-IzNHUb7uaQ6YFya1cQ-14" value="UploadFileMapper" style="shape=umlLifeline;perimeter=lifelinePerimeter;whiteSpace=wrap;html=1;container=1;dropTarget=0;collapsible=0;recursiveResize=0;outlineConnect=0;portConstraint=eastwest;newEdgeStyle={&quot;curved&quot;:0,&quot;rounded&quot;:0};" vertex="1" parent="1">
          <mxGeometry x="590" y="1290" width="140" height="1650" as="geometry" />
        </mxCell>
        <mxCell id="L-IzNHUb7uaQ6YFya1cQ-16" value="" style="html=1;points=[[0,0,0,0,5],[0,1,0,0,-5],[1,0,0,0,5],[1,1,0,0,-5]];perimeter=orthogonalPerimeter;outlineConnect=0;targetShapes=umlLifeline;portConstraint=eastwest;newEdgeStyle={&quot;curved&quot;:0,&quot;rounded&quot;:0};" vertex="1" parent="L-IzNHUb7uaQ6YFya1cQ-14">
          <mxGeometry x="65" y="1845" width="10" height="60" as="geometry" />
        </mxCell>
        <mxCell id="L-IzNHUb7uaQ6YFya1cQ-17" value="" style="html=1;points=[[0,0,0,0,5],[0,1,0,0,-5],[1,0,0,0,5],[1,1,0,0,-5]];perimeter=orthogonalPerimeter;outlineConnect=0;targetShapes=umlLifeline;portConstraint=eastwest;newEdgeStyle={&quot;curved&quot;:0,&quot;rounded&quot;:0};" vertex="1" parent="L-IzNHUb7uaQ6YFya1cQ-14">
          <mxGeometry x="65" y="2066" width="10" height="50" as="geometry" />
        </mxCell>
        <mxCell id="L-IzNHUb7uaQ6YFya1cQ-18" value="" style="html=1;points=[[0,0,0,0,5],[0,1,0,0,-5],[1,0,0,0,5],[1,1,0,0,-5]];perimeter=orthogonalPerimeter;outlineConnect=0;targetShapes=umlLifeline;portConstraint=eastwest;newEdgeStyle={&quot;curved&quot;:0,&quot;rounded&quot;:0};" vertex="1" parent="L-IzNHUb7uaQ6YFya1cQ-14">
          <mxGeometry x="65" y="2138" width="10" height="48" as="geometry" />
        </mxCell>
        <mxCell id="L-IzNHUb7uaQ6YFya1cQ-21" value="&lt;h1&gt;服务端&lt;/h1&gt;&lt;p&gt;&lt;br&gt;&lt;/p&gt;" style="text;html=1;strokeColor=none;fillColor=none;spacing=5;spacingTop=-20;whiteSpace=wrap;overflow=hidden;rounded=0;" vertex="1" parent="1">
          <mxGeometry x="527" y="1190" width="190" height="40" as="geometry" />
        </mxCell>
        <mxCell id="L-IzNHUb7uaQ6YFya1cQ-26" value="MinioServerr" style="shape=umlLifeline;perimeter=lifelinePerimeter;whiteSpace=wrap;html=1;container=1;dropTarget=0;collapsible=0;recursiveResize=0;outlineConnect=0;portConstraint=eastwest;newEdgeStyle={&quot;curved&quot;:0,&quot;rounded&quot;:0};" vertex="1" parent="1">
          <mxGeometry x="840" y="1290" width="140" height="1680" as="geometry" />
        </mxCell>
        <mxCell id="L-IzNHUb7uaQ6YFya1cQ-31" value="保存目录信息&lt;br&gt;UploadFolderInfo()" style="html=1;verticalAlign=bottom;endArrow=block;curved=0;rounded=0;" edge="1" parent="1">
          <mxGeometry x="-0.25" width="80" relative="1" as="geometry">
            <mxPoint x="15" y="2962" as="sourcePoint" />
            <mxPoint x="185" y="2962" as="targetPoint" />
            <mxPoint as="offset" />
          </mxGeometry>
        </mxCell>
        <mxCell id="L-IzNHUb7uaQ6YFya1cQ-32" value="保存目录信息&lt;br style=&quot;border-color: var(--border-color);&quot;&gt;UploadFolderInfo()" style="html=1;verticalAlign=bottom;endArrow=block;curved=0;rounded=0;entryX=0;entryY=0;entryDx=0;entryDy=5;entryPerimeter=0;" edge="1" parent="1" source="L-IzNHUb7uaQ6YFya1cQ-3" target="L-IzNHUb7uaQ6YFya1cQ-12">
          <mxGeometry width="80" relative="1" as="geometry">
            <mxPoint x="240" y="2976" as="sourcePoint" />
            <mxPoint x="320" y="2976" as="targetPoint" />
            <mxPoint as="offset" />
          </mxGeometry>
        </mxCell>
        <mxCell id="L-IzNHUb7uaQ6YFya1cQ-33" value="alt" style="shape=umlFrame;whiteSpace=wrap;html=1;pointerEvents=0;fillColor=#ffe6cc;strokeColor=#d79b00;" vertex="1" parent="1">
          <mxGeometry x="340" y="2986" width="590" height="240" as="geometry" />
        </mxCell>
        <mxCell id="L-IzNHUb7uaQ6YFya1cQ-34" value="大文件" style="text;html=1;align=center;verticalAlign=middle;resizable=0;points=[];autosize=1;strokeColor=none;fillColor=none;" vertex="1" parent="1">
          <mxGeometry x="355" y="3036" width="60" height="30" as="geometry" />
        </mxCell>
        <mxCell id="L-IzNHUb7uaQ6YFya1cQ-35" value="" style="html=1;points=[[0,0,0,0,5],[0,1,0,0,-5],[1,0,0,0,5],[1,1,0,0,-5]];perimeter=orthogonalPerimeter;outlineConnect=0;targetShapes=umlLifeline;portConstraint=eastwest;newEdgeStyle={&quot;curved&quot;:0,&quot;rounded&quot;:0};" vertex="1" parent="1">
          <mxGeometry x="440" y="3021" width="10" height="185" as="geometry" />
        </mxCell>
        <mxCell id="L-IzNHUb7uaQ6YFya1cQ-36" value="文件切片&lt;br&gt;FileChunk()" style="html=1;align=left;spacingLeft=2;endArrow=block;rounded=0;edgeStyle=orthogonalEdgeStyle;curved=0;rounded=0;" edge="1" parent="1" target="L-IzNHUb7uaQ6YFya1cQ-35">
          <mxGeometry relative="1" as="geometry">
            <mxPoint x="445" y="3001" as="sourcePoint" />
            <Array as="points">
              <mxPoint x="475" y="3031" />
            </Array>
          </mxGeometry>
        </mxCell>
        <mxCell id="L-IzNHUb7uaQ6YFya1cQ-37" value="" style="html=1;points=[[0,0,0,0,5],[0,1,0,0,-5],[1,0,0,0,5],[1,1,0,0,-5]];perimeter=orthogonalPerimeter;outlineConnect=0;targetShapes=umlLifeline;portConstraint=eastwest;newEdgeStyle={&quot;curved&quot;:0,&quot;rounded&quot;:0};" vertex="1" parent="1">
          <mxGeometry x="905" y="3050" width="10" height="56" as="geometry" />
        </mxCell>
        <mxCell id="L-IzNHUb7uaQ6YFya1cQ-38" value="文件切片申请Url&lt;br style=&quot;border-color: var(--border-color);&quot;&gt;GetUploadChunkUrl()" style="html=1;verticalAlign=bottom;endArrow=block;curved=0;rounded=0;" edge="1" parent="1">
          <mxGeometry width="80" relative="1" as="geometry">
            <mxPoint x="450" y="3057" as="sourcePoint" />
            <mxPoint x="905" y="3057" as="targetPoint" />
          </mxGeometry>
        </mxCell>
        <mxCell id="L-IzNHUb7uaQ6YFya1cQ-39" value="return" style="html=1;verticalAlign=bottom;endArrow=open;dashed=1;endSize=8;curved=0;rounded=0;exitX=0;exitY=1;exitDx=0;exitDy=-5;exitPerimeter=0;" edge="1" parent="1" source="L-IzNHUb7uaQ6YFya1cQ-37" target="L-IzNHUb7uaQ6YFya1cQ-35">
          <mxGeometry relative="1" as="geometry">
            <mxPoint x="740" y="3096" as="sourcePoint" />
            <mxPoint x="660" y="3096" as="targetPoint" />
          </mxGeometry>
        </mxCell>
        <mxCell id="L-IzNHUb7uaQ6YFya1cQ-40" value="新增切片任务&lt;br style=&quot;border-color: var(--border-color);&quot;&gt;InsertChunkTask()" style="html=1;verticalAlign=bottom;endArrow=block;curved=0;rounded=0;entryX=0;entryY=0;entryDx=0;entryDy=5;" edge="1" parent="1" source="L-IzNHUb7uaQ6YFya1cQ-35" target="L-IzNHUb7uaQ6YFya1cQ-16">
          <mxGeometry relative="1" as="geometry">
            <mxPoint x="585" y="3121" as="sourcePoint" />
          </mxGeometry>
        </mxCell>
        <mxCell id="L-IzNHUb7uaQ6YFya1cQ-41" value="return" style="html=1;verticalAlign=bottom;endArrow=open;dashed=1;endSize=8;curved=0;rounded=0;exitX=0;exitY=1;exitDx=0;exitDy=-5;" edge="1" parent="1" source="L-IzNHUb7uaQ6YFya1cQ-16" target="L-IzNHUb7uaQ6YFya1cQ-35">
          <mxGeometry relative="1" as="geometry">
            <mxPoint x="585" y="3191" as="targetPoint" />
          </mxGeometry>
        </mxCell>
        <mxCell id="L-IzNHUb7uaQ6YFya1cQ-42" value="alt" style="shape=umlFrame;whiteSpace=wrap;html=1;pointerEvents=0;fillColor=#ffe6cc;strokeColor=#d79b00;" vertex="1" parent="1">
          <mxGeometry x="340" y="3236" width="590" height="90" as="geometry" />
        </mxCell>
        <mxCell id="L-IzNHUb7uaQ6YFya1cQ-43" value="小文件" style="text;html=1;align=center;verticalAlign=middle;resizable=0;points=[];autosize=1;strokeColor=none;fillColor=none;" vertex="1" parent="1">
          <mxGeometry x="359" y="3286" width="60" height="30" as="geometry" />
        </mxCell>
        <mxCell id="L-IzNHUb7uaQ6YFya1cQ-44" value="" style="html=1;points=[[0,0,0,0,5],[0,1,0,0,-5],[1,0,0,0,5],[1,1,0,0,-5]];perimeter=orthogonalPerimeter;outlineConnect=0;targetShapes=umlLifeline;portConstraint=eastwest;newEdgeStyle={&quot;curved&quot;:0,&quot;rounded&quot;:0};" vertex="1" parent="1">
          <mxGeometry x="905" y="3266" width="10" height="40" as="geometry" />
        </mxCell>
        <mxCell id="L-IzNHUb7uaQ6YFya1cQ-45" value="申请上传url&lt;br style=&quot;border-color: var(--border-color);&quot;&gt;GetUploadFileUrl()" style="html=1;verticalAlign=bottom;endArrow=block;curved=0;rounded=0;entryX=0;entryY=0;entryDx=0;entryDy=5;" edge="1" parent="1" source="L-IzNHUb7uaQ6YFya1cQ-12" target="L-IzNHUb7uaQ6YFya1cQ-44">
          <mxGeometry relative="1" as="geometry">
            <mxPoint x="835" y="3251" as="sourcePoint" />
          </mxGeometry>
        </mxCell>
        <mxCell id="L-IzNHUb7uaQ6YFya1cQ-46" value="return" style="html=1;verticalAlign=bottom;endArrow=open;dashed=1;endSize=8;curved=0;rounded=0;exitX=0;exitY=1;exitDx=0;exitDy=-5;" edge="1" parent="1" source="L-IzNHUb7uaQ6YFya1cQ-44" target="L-IzNHUb7uaQ6YFya1cQ-12">
          <mxGeometry relative="1" as="geometry">
            <mxPoint x="835" y="3321" as="targetPoint" />
          </mxGeometry>
        </mxCell>
        <mxCell id="L-IzNHUb7uaQ6YFya1cQ-47" value="新增下载任务&lt;br&gt;InsertFileTask()" style="html=1;verticalAlign=bottom;endArrow=block;curved=0;rounded=0;entryX=0;entryY=0;entryDx=0;entryDy=5;" edge="1" parent="1">
          <mxGeometry relative="1" as="geometry">
            <mxPoint x="445" y="3364" as="sourcePoint" />
            <mxPoint x="655" y="3364" as="targetPoint" />
            <mxPoint as="offset" />
          </mxGeometry>
        </mxCell>
        <mxCell id="L-IzNHUb7uaQ6YFya1cQ-48" value="return" style="html=1;verticalAlign=bottom;endArrow=open;dashed=1;endSize=8;curved=0;rounded=0;exitX=0;exitY=1;exitDx=0;exitDy=-5;" edge="1" parent="1" source="L-IzNHUb7uaQ6YFya1cQ-17">
          <mxGeometry relative="1" as="geometry">
            <mxPoint x="445" y="3401" as="targetPoint" />
            <mxPoint as="offset" />
          </mxGeometry>
        </mxCell>
        <mxCell id="L-IzNHUb7uaQ6YFya1cQ-49" value="更新上传状态&lt;br&gt;UpdateFileStatus()" style="html=1;verticalAlign=bottom;endArrow=block;curved=0;rounded=0;entryX=0;entryY=0;entryDx=0;entryDy=5;entryPerimeter=0;" edge="1" parent="1">
          <mxGeometry width="80" relative="1" as="geometry">
            <mxPoint x="445" y="3435" as="sourcePoint" />
            <mxPoint x="655" y="3435" as="targetPoint" />
          </mxGeometry>
        </mxCell>
        <mxCell id="L-IzNHUb7uaQ6YFya1cQ-50" value="return" style="html=1;verticalAlign=bottom;endArrow=open;dashed=1;endSize=8;curved=0;rounded=0;exitX=0;exitY=1;exitDx=0;exitDy=-5;exitPerimeter=0;" edge="1" parent="1" source="L-IzNHUb7uaQ6YFya1cQ-18" target="L-IzNHUb7uaQ6YFya1cQ-12">
          <mxGeometry relative="1" as="geometry">
            <mxPoint x="620" y="3476" as="sourcePoint" />
            <mxPoint x="540" y="3476" as="targetPoint" />
          </mxGeometry>
        </mxCell>
        <mxCell id="L-IzNHUb7uaQ6YFya1cQ-51" value="return" style="html=1;verticalAlign=bottom;endArrow=open;dashed=1;endSize=8;curved=0;rounded=0;exitX=0;exitY=1;exitDx=0;exitDy=-5;exitPerimeter=0;" edge="1" parent="1" source="L-IzNHUb7uaQ6YFya1cQ-12" target="L-IzNHUb7uaQ6YFya1cQ-3">
          <mxGeometry relative="1" as="geometry">
            <mxPoint x="400" y="3496" as="sourcePoint" />
            <mxPoint x="320" y="3496" as="targetPoint" />
          </mxGeometry>
        </mxCell>
        <mxCell id="L-IzNHUb7uaQ6YFya1cQ-52" value="return" style="html=1;verticalAlign=bottom;endArrow=open;dashed=1;endSize=8;curved=0;rounded=0;exitX=0;exitY=1;exitDx=0;exitDy=-5;exitPerimeter=0;" edge="1" parent="1" source="L-IzNHUb7uaQ6YFya1cQ-3" target="L-IzNHUb7uaQ6YFya1cQ-7">
          <mxGeometry relative="1" as="geometry">
            <mxPoint x="140" y="3526" as="sourcePoint" />
            <mxPoint x="60" y="3526" as="targetPoint" />
          </mxGeometry>
        </mxCell>
        <mxCell id="L-IzNHUb7uaQ6YFya1cQ-53" value="单个文件上传任务&lt;br&gt;CreateFileUploadTask()" style="html=1;verticalAlign=bottom;endArrow=block;curved=0;rounded=0;entryX=0;entryY=0;entryDx=0;entryDy=5;entryPerimeter=0;" edge="1" parent="1" source="L-IzNHUb7uaQ6YFya1cQ-8" target="L-IzNHUb7uaQ6YFya1cQ-4">
          <mxGeometry width="80" relative="1" as="geometry">
            <mxPoint x="20" y="3626" as="sourcePoint" />
            <mxPoint x="100" y="3626" as="targetPoint" />
          </mxGeometry>
        </mxCell>
        <mxCell id="L-IzNHUb7uaQ6YFya1cQ-9" value="" style="html=1;points=[[0,0,0,0,5],[0,1,0,0,-5],[1,0,0,0,5],[1,1,0,0,-5]];perimeter=orthogonalPerimeter;outlineConnect=0;targetShapes=umlLifeline;portConstraint=eastwest;newEdgeStyle={&quot;curved&quot;:0,&quot;rounded&quot;:0};" vertex="1" parent="1">
          <mxGeometry x="5" y="1367" width="10" height="70" as="geometry" />
        </mxCell>
        <mxCell id="L-IzNHUb7uaQ6YFya1cQ-13" value="" style="html=1;points=[[0,0,0,0,5],[0,1,0,0,-5],[1,0,0,0,5],[1,1,0,0,-5]];perimeter=orthogonalPerimeter;outlineConnect=0;targetShapes=umlLifeline;portConstraint=eastwest;newEdgeStyle={&quot;curved&quot;:0,&quot;rounded&quot;:0};" vertex="1" parent="1">
          <mxGeometry x="435" y="1373" width="10" height="707" as="geometry" />
        </mxCell>
        <mxCell id="L-IzNHUb7uaQ6YFya1cQ-19" value="" style="html=1;points=[[0,0,0,0,5],[0,1,0,0,-5],[1,0,0,0,5],[1,1,0,0,-5]];perimeter=orthogonalPerimeter;outlineConnect=0;targetShapes=umlLifeline;portConstraint=eastwest;newEdgeStyle={&quot;curved&quot;:0,&quot;rounded&quot;:0};" vertex="1" parent="1">
          <mxGeometry x="655" y="1388" width="10" height="49" as="geometry" />
        </mxCell>
        <mxCell id="L-IzNHUb7uaQ6YFya1cQ-20" value="" style="html=1;points=[[0,0,0,0,5],[0,1,0,0,-5],[1,0,0,0,5],[1,1,0,0,-5]];perimeter=orthogonalPerimeter;outlineConnect=0;targetShapes=umlLifeline;portConstraint=eastwest;newEdgeStyle={&quot;curved&quot;:0,&quot;rounded&quot;:0};" vertex="1" parent="1">
          <mxGeometry x="655" y="1587" width="10" height="60" as="geometry" />
        </mxCell>
        <mxCell id="L-IzNHUb7uaQ6YFya1cQ-58" value="上传Url校验【定时服务】&lt;br&gt;ResetExpiredUrl()" style="html=1;verticalAlign=bottom;endArrow=block;curved=0;rounded=0;entryX=0;entryY=0;entryDx=0;entryDy=5;entryPerimeter=0;" edge="1" parent="1" target="L-IzNHUb7uaQ6YFya1cQ-13">
          <mxGeometry width="80" relative="1" as="geometry">
            <mxPoint x="15" y="1381" as="sourcePoint" />
            <mxPoint x="185" y="1381" as="targetPoint" />
            <mxPoint as="offset" />
          </mxGeometry>
        </mxCell>
        <mxCell id="L-IzNHUb7uaQ6YFya1cQ-59" value="获取过期Url的文件，每次取100条&lt;br&gt;GetExpiredUrList()l" style="html=1;verticalAlign=bottom;endArrow=block;curved=0;rounded=0;entryX=0;entryY=0;entryDx=0;entryDy=5;" edge="1" parent="1" source="L-IzNHUb7uaQ6YFya1cQ-13" target="L-IzNHUb7uaQ6YFya1cQ-19">
          <mxGeometry relative="1" as="geometry">
            <mxPoint x="585" y="1382" as="sourcePoint" />
          </mxGeometry>
        </mxCell>
        <mxCell id="L-IzNHUb7uaQ6YFya1cQ-60" value="return" style="html=1;verticalAlign=bottom;endArrow=open;dashed=1;endSize=8;curved=0;rounded=0;exitX=0;exitY=1;exitDx=0;exitDy=-5;" edge="1" parent="1" source="L-IzNHUb7uaQ6YFya1cQ-19" target="L-IzNHUb7uaQ6YFya1cQ-13">
          <mxGeometry relative="1" as="geometry">
            <mxPoint x="585" y="1452" as="targetPoint" />
          </mxGeometry>
        </mxCell>
        <mxCell id="L-IzNHUb7uaQ6YFya1cQ-61" value="alt" style="shape=umlFrame;whiteSpace=wrap;html=1;pointerEvents=0;fillColor=#ffe6cc;strokeColor=#d79b00;" vertex="1" parent="1">
          <mxGeometry x="355" y="1466" width="591" height="191" as="geometry" />
        </mxCell>
        <mxCell id="L-IzNHUb7uaQ6YFya1cQ-62" value="文件" style="text;html=1;align=center;verticalAlign=middle;resizable=0;points=[];autosize=1;strokeColor=none;fillColor=none;" vertex="1" parent="1">
          <mxGeometry x="369" y="1511.5" width="50" height="30" as="geometry" />
        </mxCell>
        <mxCell id="L-IzNHUb7uaQ6YFya1cQ-63" value="" style="html=1;points=[[0,0,0,0,5],[0,1,0,0,-5],[1,0,0,0,5],[1,1,0,0,-5]];perimeter=orthogonalPerimeter;outlineConnect=0;targetShapes=umlLifeline;portConstraint=eastwest;newEdgeStyle={&quot;curved&quot;:0,&quot;rounded&quot;:0};" vertex="1" parent="1">
          <mxGeometry x="905" y="1492" width="10" height="55" as="geometry" />
        </mxCell>
        <mxCell id="L-IzNHUb7uaQ6YFya1cQ-64" value="申请上传url&lt;br style=&quot;border-color: var(--border-color);&quot;&gt;GetUploadFileUrl()" style="html=1;verticalAlign=bottom;endArrow=block;curved=0;rounded=0;entryX=0;entryY=0;entryDx=0;entryDy=5;" edge="1" parent="1" source="L-IzNHUb7uaQ6YFya1cQ-73">
          <mxGeometry relative="1" as="geometry">
            <mxPoint x="445" y="1509" as="sourcePoint" />
            <mxPoint x="905" y="1509" as="targetPoint" />
          </mxGeometry>
        </mxCell>
        <mxCell id="L-IzNHUb7uaQ6YFya1cQ-65" value="return" style="html=1;verticalAlign=bottom;endArrow=open;dashed=1;endSize=8;curved=0;rounded=0;exitX=0;exitY=1;exitDx=0;exitDy=-5;" edge="1" parent="1" source="L-IzNHUb7uaQ6YFya1cQ-63" target="L-IzNHUb7uaQ6YFya1cQ-73">
          <mxGeometry relative="1" as="geometry">
            <mxPoint x="835" y="1552" as="targetPoint" />
          </mxGeometry>
        </mxCell>
        <mxCell id="L-IzNHUb7uaQ6YFya1cQ-66" value="alt" style="shape=umlFrame;whiteSpace=wrap;html=1;pointerEvents=0;fillColor=#ffe6cc;strokeColor=#d79b00;" vertex="1" parent="1">
          <mxGeometry x="355" y="1687" width="591" height="350" as="geometry" />
        </mxCell>
        <mxCell id="L-IzNHUb7uaQ6YFya1cQ-67" value="大文件块" style="text;html=1;align=center;verticalAlign=middle;resizable=0;points=[];autosize=1;strokeColor=none;fillColor=none;" vertex="1" parent="1">
          <mxGeometry x="359" y="1751" width="70" height="30" as="geometry" />
        </mxCell>
        <mxCell id="L-IzNHUb7uaQ6YFya1cQ-68" value="" style="html=1;points=[[0,0,0,0,5],[0,1,0,0,-5],[1,0,0,0,5],[1,1,0,0,-5]];perimeter=orthogonalPerimeter;outlineConnect=0;targetShapes=umlLifeline;portConstraint=eastwest;newEdgeStyle={&quot;curved&quot;:0,&quot;rounded&quot;:0};" vertex="1" parent="1">
          <mxGeometry x="905" y="1721" width="10" height="60" as="geometry" />
        </mxCell>
        <mxCell id="L-IzNHUb7uaQ6YFya1cQ-69" value="文件切片申请Url&lt;br style=&quot;border-color: var(--border-color);&quot;&gt;GetUploadChunkUrl()" style="html=1;verticalAlign=bottom;endArrow=block;curved=0;rounded=0;entryX=0;entryY=0;entryDx=0;entryDy=5;" edge="1" parent="1">
          <mxGeometry relative="1" as="geometry">
            <mxPoint x="445" y="1733" as="sourcePoint" />
            <mxPoint x="905" y="1733" as="targetPoint" />
          </mxGeometry>
        </mxCell>
        <mxCell id="L-IzNHUb7uaQ6YFya1cQ-70" value="return" style="html=1;verticalAlign=bottom;endArrow=open;dashed=1;endSize=8;curved=0;rounded=0;exitX=0;exitY=1;exitDx=0;exitDy=-5;" edge="1" parent="1" source="L-IzNHUb7uaQ6YFya1cQ-68" target="L-IzNHUb7uaQ6YFya1cQ-75">
          <mxGeometry relative="1" as="geometry">
            <mxPoint x="445" y="1776" as="targetPoint" />
          </mxGeometry>
        </mxCell>
        <mxCell id="L-IzNHUb7uaQ6YFya1cQ-71" value="更新上传Url和申请时间&lt;br&gt;UpdateUploadUrl()" style="html=1;verticalAlign=bottom;endArrow=block;curved=0;rounded=0;entryX=0;entryY=0;entryDx=0;entryDy=5;" edge="1" parent="1" source="L-IzNHUb7uaQ6YFya1cQ-73" target="L-IzNHUb7uaQ6YFya1cQ-20">
          <mxGeometry relative="1" as="geometry">
            <mxPoint x="585" y="1572" as="sourcePoint" />
          </mxGeometry>
        </mxCell>
        <mxCell id="L-IzNHUb7uaQ6YFya1cQ-72" value="return" style="html=1;verticalAlign=bottom;endArrow=open;dashed=1;endSize=8;curved=0;rounded=0;exitX=0;exitY=1;exitDx=0;exitDy=-5;entryX=1;entryY=1;entryDx=0;entryDy=-5;entryPerimeter=0;" edge="1" parent="1" source="L-IzNHUb7uaQ6YFya1cQ-20" target="L-IzNHUb7uaQ6YFya1cQ-73">
          <mxGeometry relative="1" as="geometry">
            <mxPoint x="585" y="1642" as="targetPoint" />
          </mxGeometry>
        </mxCell>
        <mxCell id="L-IzNHUb7uaQ6YFya1cQ-73" value="" style="html=1;points=[[0,0,0,0,5],[0,1,0,0,-5],[1,0,0,0,5],[1,1,0,0,-5]];perimeter=orthogonalPerimeter;outlineConnect=0;targetShapes=umlLifeline;portConstraint=eastwest;newEdgeStyle={&quot;curved&quot;:0,&quot;rounded&quot;:0};" vertex="1" parent="1">
          <mxGeometry x="440" y="1487" width="10" height="160" as="geometry" />
        </mxCell>
        <mxCell id="L-IzNHUb7uaQ6YFya1cQ-74" value="小文件Url重置&lt;br&gt;FileUrlRest()" style="html=1;align=left;spacingLeft=2;endArrow=block;rounded=0;edgeStyle=orthogonalEdgeStyle;curved=0;rounded=0;" edge="1" parent="1" target="L-IzNHUb7uaQ6YFya1cQ-73">
          <mxGeometry relative="1" as="geometry">
            <mxPoint x="445" y="1467" as="sourcePoint" />
            <Array as="points">
              <mxPoint x="475" y="1497" />
            </Array>
          </mxGeometry>
        </mxCell>
        <mxCell id="L-IzNHUb7uaQ6YFya1cQ-75" value="" style="html=1;points=[[0,0,0,0,5],[0,1,0,0,-5],[1,0,0,0,5],[1,1,0,0,-5]];perimeter=orthogonalPerimeter;outlineConnect=0;targetShapes=umlLifeline;portConstraint=eastwest;newEdgeStyle={&quot;curved&quot;:0,&quot;rounded&quot;:0};" vertex="1" parent="1">
          <mxGeometry x="440" y="1711" width="10" height="296" as="geometry" />
        </mxCell>
        <mxCell id="L-IzNHUb7uaQ6YFya1cQ-76" value="切片Url重置&lt;br&gt;FileChunkUrlRest()" style="html=1;align=left;spacingLeft=2;endArrow=block;rounded=0;edgeStyle=orthogonalEdgeStyle;curved=0;rounded=0;" edge="1" parent="1" target="L-IzNHUb7uaQ6YFya1cQ-75">
          <mxGeometry x="0.0118" relative="1" as="geometry">
            <mxPoint x="445" y="1691" as="sourcePoint" />
            <Array as="points">
              <mxPoint x="475" y="1721" />
            </Array>
            <mxPoint as="offset" />
          </mxGeometry>
        </mxCell>
        <mxCell id="L-IzNHUb7uaQ6YFya1cQ-77" value="" style="html=1;points=[[0,0,0,0,5],[0,1,0,0,-5],[1,0,0,0,5],[1,1,0,0,-5]];perimeter=orthogonalPerimeter;outlineConnect=0;targetShapes=umlLifeline;portConstraint=eastwest;newEdgeStyle={&quot;curved&quot;:0,&quot;rounded&quot;:0};" vertex="1" parent="1">
          <mxGeometry x="445" y="1817" width="10" height="100" as="geometry" />
        </mxCell>
        <mxCell id="L-IzNHUb7uaQ6YFya1cQ-78" value="self call" style="html=1;align=left;spacingLeft=2;endArrow=block;rounded=0;edgeStyle=orthogonalEdgeStyle;curved=0;rounded=0;" edge="1" parent="1" target="L-IzNHUb7uaQ6YFya1cQ-77">
          <mxGeometry relative="1" as="geometry">
            <mxPoint x="450" y="1797" as="sourcePoint" />
            <Array as="points">
              <mxPoint x="480" y="1827" />
            </Array>
          </mxGeometry>
        </mxCell>
        <mxCell id="L-IzNHUb7uaQ6YFya1cQ-79" value="" style="html=1;points=[[0,0,0,0,5],[0,1,0,0,-5],[1,0,0,0,5],[1,1,0,0,-5]];perimeter=orthogonalPerimeter;outlineConnect=0;targetShapes=umlLifeline;portConstraint=eastwest;newEdgeStyle={&quot;curved&quot;:0,&quot;rounded&quot;:0};" vertex="1" parent="1">
          <mxGeometry x="655" y="1855" width="10" height="60" as="geometry" />
        </mxCell>
        <mxCell id="L-IzNHUb7uaQ6YFya1cQ-80" value="更新单个切片文件的url和申请时间&lt;br&gt;UpdatePartChunkUrl（）" style="html=1;verticalAlign=bottom;endArrow=block;curved=0;rounded=0;entryX=0;entryY=0;entryDx=0;entryDy=5;" edge="1" parent="1" source="L-IzNHUb7uaQ6YFya1cQ-77" target="L-IzNHUb7uaQ6YFya1cQ-79">
          <mxGeometry relative="1" as="geometry">
            <mxPoint x="585" y="1842" as="sourcePoint" />
          </mxGeometry>
        </mxCell>
        <mxCell id="L-IzNHUb7uaQ6YFya1cQ-81" value="return" style="html=1;verticalAlign=bottom;endArrow=open;dashed=1;endSize=8;curved=0;rounded=0;exitX=0;exitY=1;exitDx=0;exitDy=-5;entryX=1;entryY=1;entryDx=0;entryDy=-5;entryPerimeter=0;" edge="1" parent="1" source="L-IzNHUb7uaQ6YFya1cQ-79" target="L-IzNHUb7uaQ6YFya1cQ-77">
          <mxGeometry x="-0.0615" y="-4" relative="1" as="geometry">
            <mxPoint x="585" y="1912" as="targetPoint" />
            <mxPoint as="offset" />
          </mxGeometry>
        </mxCell>
        <mxCell id="L-IzNHUb7uaQ6YFya1cQ-82" value="" style="html=1;points=[[0,0,0,0,5],[0,1,0,0,-5],[1,0,0,0,5],[1,1,0,0,-5]];perimeter=orthogonalPerimeter;outlineConnect=0;targetShapes=umlLifeline;portConstraint=eastwest;newEdgeStyle={&quot;curved&quot;:0,&quot;rounded&quot;:0};" vertex="1" parent="1">
          <mxGeometry x="655" y="1942" width="10" height="60" as="geometry" />
        </mxCell>
        <mxCell id="L-IzNHUb7uaQ6YFya1cQ-83" value="更新文件申请时间&lt;br style=&quot;border-color: var(--border-color);&quot;&gt;UpdateUploadUrl()" style="html=1;verticalAlign=bottom;endArrow=block;curved=0;rounded=0;entryX=0;entryY=0;entryDx=0;entryDy=5;" edge="1" parent="1" source="L-IzNHUb7uaQ6YFya1cQ-75" target="L-IzNHUb7uaQ6YFya1cQ-82">
          <mxGeometry x="0.0049" relative="1" as="geometry">
            <mxPoint x="585" y="1939" as="sourcePoint" />
            <mxPoint as="offset" />
          </mxGeometry>
        </mxCell>
        <mxCell id="L-IzNHUb7uaQ6YFya1cQ-84" value="return" style="html=1;verticalAlign=bottom;endArrow=open;dashed=1;endSize=8;curved=0;rounded=0;exitX=0;exitY=1;exitDx=0;exitDy=-5;entryX=1;entryY=1;entryDx=0;entryDy=-5;entryPerimeter=0;" edge="1" parent="1" source="L-IzNHUb7uaQ6YFya1cQ-82" target="L-IzNHUb7uaQ6YFya1cQ-75">
          <mxGeometry relative="1" as="geometry">
            <mxPoint x="585" y="2009" as="targetPoint" />
          </mxGeometry>
        </mxCell>
        <mxCell id="CADLqeEdBxm7FGJ4j8Je-1" value="return" style="html=1;verticalAlign=bottom;endArrow=open;dashed=1;endSize=8;curved=0;rounded=0;" edge="1" parent="1">
          <mxGeometry relative="1" as="geometry">
            <mxPoint x="435" y="2021.5" as="sourcePoint" />
            <mxPoint x="189.5" y="2021.5" as="targetPoint" />
          </mxGeometry>
        </mxCell>
      </root>
    </mxGraphModel>
  </diagram>
  <diagram id="PMN2ofAiYgBEs0_nZAQa" name="保存上传信息">
    <mxGraphModel dx="1434" dy="-423" grid="1" gridSize="10" guides="1" tooltips="1" connect="1" arrows="1" fold="1" page="1" pageScale="1" pageWidth="827" pageHeight="1169" math="0" shadow="0">
      <root>
        <mxCell id="0" />
        <mxCell id="1" parent="0" />
        <mxCell id="4hDJxOOecdKZWFw1wwlg-1" value="UploadFileController" style="shape=umlLifeline;perimeter=lifelinePerimeter;whiteSpace=wrap;html=1;container=1;dropTarget=0;collapsible=0;recursiveResize=0;outlineConnect=0;portConstraint=eastwest;newEdgeStyle={&quot;curved&quot;:0,&quot;rounded&quot;:0};" vertex="1" parent="1">
          <mxGeometry x="120" y="1290" width="140" height="2070" as="geometry" />
        </mxCell>
        <mxCell id="4hDJxOOecdKZWFw1wwlg-2" value="" style="html=1;points=[[0,0,0,0,5],[0,1,0,0,-5],[1,0,0,0,5],[1,1,0,0,-5]];perimeter=orthogonalPerimeter;outlineConnect=0;targetShapes=umlLifeline;portConstraint=eastwest;newEdgeStyle={&quot;curved&quot;:0,&quot;rounded&quot;:0};" vertex="1" parent="4hDJxOOecdKZWFw1wwlg-1">
          <mxGeometry x="65" y="60" width="10" height="740" as="geometry" />
        </mxCell>
        <mxCell id="4hDJxOOecdKZWFw1wwlg-5" value="" style="shape=umlLifeline;perimeter=lifelinePerimeter;whiteSpace=wrap;html=1;container=1;dropTarget=0;collapsible=0;recursiveResize=0;outlineConnect=0;portConstraint=eastwest;newEdgeStyle={&quot;curved&quot;:0,&quot;rounded&quot;:0};participant=umlActor;" vertex="1" parent="1">
          <mxGeometry y="1290" width="20" height="2070" as="geometry" />
        </mxCell>
        <mxCell id="4hDJxOOecdKZWFw1wwlg-6" value="" style="html=1;points=[[0,0,0,0,5],[0,1,0,0,-5],[1,0,0,0,5],[1,1,0,0,-5]];perimeter=orthogonalPerimeter;outlineConnect=0;targetShapes=umlLifeline;portConstraint=eastwest;newEdgeStyle={&quot;curved&quot;:0,&quot;rounded&quot;:0};" vertex="1" parent="4hDJxOOecdKZWFw1wwlg-5">
          <mxGeometry x="5" y="70" width="10" height="740" as="geometry" />
        </mxCell>
        <mxCell id="4hDJxOOecdKZWFw1wwlg-9" value="UploadFileService" style="shape=umlLifeline;perimeter=lifelinePerimeter;whiteSpace=wrap;html=1;container=1;dropTarget=0;collapsible=0;recursiveResize=0;outlineConnect=0;portConstraint=eastwest;newEdgeStyle={&quot;curved&quot;:0,&quot;rounded&quot;:0};" vertex="1" parent="1">
          <mxGeometry x="370" y="1290" width="140" height="2130" as="geometry" />
        </mxCell>
        <mxCell id="4hDJxOOecdKZWFw1wwlg-10" value="" style="html=1;points=[[0,0,0,0,5],[0,1,0,0,-5],[1,0,0,0,5],[1,1,0,0,-5]];perimeter=orthogonalPerimeter;outlineConnect=0;targetShapes=umlLifeline;portConstraint=eastwest;newEdgeStyle={&quot;curved&quot;:0,&quot;rounded&quot;:0};" vertex="1" parent="4hDJxOOecdKZWFw1wwlg-9">
          <mxGeometry x="65" y="70" width="10" height="1860" as="geometry" />
        </mxCell>
        <mxCell id="ijrxdC7IUcDOOv6l4YaE-5" value="" style="html=1;points=[[0,0,0,0,5],[0,1,0,0,-5],[1,0,0,0,5],[1,1,0,0,-5]];perimeter=orthogonalPerimeter;outlineConnect=0;targetShapes=umlLifeline;portConstraint=eastwest;newEdgeStyle={&quot;curved&quot;:0,&quot;rounded&quot;:0};" vertex="1" parent="4hDJxOOecdKZWFw1wwlg-9">
          <mxGeometry x="70" y="1008" width="10" height="409" as="geometry" />
        </mxCell>
        <mxCell id="ijrxdC7IUcDOOv6l4YaE-6" value="保存上传文件信息&lt;br style=&quot;border-color: var(--border-color);&quot;&gt;ParseUploadFileInfo（）" style="html=1;align=left;spacingLeft=2;endArrow=block;rounded=0;edgeStyle=orthogonalEdgeStyle;curved=0;rounded=0;" edge="1" target="ijrxdC7IUcDOOv6l4YaE-5" parent="4hDJxOOecdKZWFw1wwlg-9">
          <mxGeometry x="0.0118" relative="1" as="geometry">
            <mxPoint x="75" y="988" as="sourcePoint" />
            <Array as="points">
              <mxPoint x="105" y="1018" />
            </Array>
            <mxPoint as="offset" />
          </mxGeometry>
        </mxCell>
        <mxCell id="ijrxdC7IUcDOOv6l4YaE-59" value="" style="html=1;points=[[0,0,0,0,5],[0,1,0,0,-5],[1,0,0,0,5],[1,1,0,0,-5]];perimeter=orthogonalPerimeter;outlineConnect=0;targetShapes=umlLifeline;portConstraint=eastwest;newEdgeStyle={&quot;curved&quot;:0,&quot;rounded&quot;:0};" vertex="1" parent="4hDJxOOecdKZWFw1wwlg-9">
          <mxGeometry x="70" y="1630" width="10" height="40" as="geometry" />
        </mxCell>
        <mxCell id="ijrxdC7IUcDOOv6l4YaE-60" value="同上-保存识别到的目录和文件信息&lt;br style=&quot;border-color: var(--border-color);&quot;&gt;ParseFolderInfo（）" style="html=1;align=left;spacingLeft=2;endArrow=block;rounded=0;edgeStyle=orthogonalEdgeStyle;curved=0;rounded=0;" edge="1" target="ijrxdC7IUcDOOv6l4YaE-59" parent="4hDJxOOecdKZWFw1wwlg-9">
          <mxGeometry relative="1" as="geometry">
            <mxPoint x="75" y="1610" as="sourcePoint" />
            <Array as="points">
              <mxPoint x="105" y="1640" />
            </Array>
          </mxGeometry>
        </mxCell>
        <mxCell id="4hDJxOOecdKZWFw1wwlg-14" value="UploadFileMapper" style="shape=umlLifeline;perimeter=lifelinePerimeter;whiteSpace=wrap;html=1;container=1;dropTarget=0;collapsible=0;recursiveResize=0;outlineConnect=0;portConstraint=eastwest;newEdgeStyle={&quot;curved&quot;:0,&quot;rounded&quot;:0};" vertex="1" parent="1">
          <mxGeometry x="590" y="1290" width="140" height="2120" as="geometry" />
        </mxCell>
        <mxCell id="wdkEg6WzORd9bW3VttyS-13" value="" style="html=1;points=[[0,0,0,0,5],[0,1,0,0,-5],[1,0,0,0,5],[1,1,0,0,-5]];perimeter=orthogonalPerimeter;outlineConnect=0;targetShapes=umlLifeline;portConstraint=eastwest;newEdgeStyle={&quot;curved&quot;:0,&quot;rounded&quot;:0};" vertex="1" parent="4hDJxOOecdKZWFw1wwlg-14">
          <mxGeometry x="65" y="1739" width="10" height="60" as="geometry" />
        </mxCell>
        <mxCell id="wdkEg6WzORd9bW3VttyS-14" value="更新文件状态&lt;br&gt;UpdateFileStatus()" style="html=1;verticalAlign=bottom;endArrow=block;curved=0;rounded=0;entryX=0;entryY=0;entryDx=0;entryDy=5;" edge="1" target="wdkEg6WzORd9bW3VttyS-13" parent="4hDJxOOecdKZWFw1wwlg-14">
          <mxGeometry relative="1" as="geometry">
            <mxPoint x="-145" y="1744" as="sourcePoint" />
          </mxGeometry>
        </mxCell>
        <mxCell id="ijrxdC7IUcDOOv6l4YaE-50" value="" style="html=1;points=[[0,0,0,0,5],[0,1,0,0,-5],[1,0,0,0,5],[1,1,0,0,-5]];perimeter=orthogonalPerimeter;outlineConnect=0;targetShapes=umlLifeline;portConstraint=eastwest;newEdgeStyle={&quot;curved&quot;:0,&quot;rounded&quot;:0};" vertex="1" parent="4hDJxOOecdKZWFw1wwlg-14">
          <mxGeometry x="65" y="270.8599999999999" width="10" height="49" as="geometry" />
        </mxCell>
        <mxCell id="4hDJxOOecdKZWFw1wwlg-19" value="&lt;h1&gt;服务端&lt;/h1&gt;&lt;p&gt;&lt;br&gt;&lt;/p&gt;" style="text;html=1;strokeColor=none;fillColor=none;spacing=5;spacingTop=-20;whiteSpace=wrap;overflow=hidden;rounded=0;" vertex="1" parent="1">
          <mxGeometry x="527" y="1190" width="190" height="40" as="geometry" />
        </mxCell>
        <mxCell id="4hDJxOOecdKZWFw1wwlg-20" value="保存上传信息&lt;br style=&quot;border-color: var(--border-color);&quot;&gt;SaveUploadInfo（）" style="html=1;verticalAlign=bottom;endArrow=block;curved=0;rounded=0;exitX=1;exitY=0;exitDx=0;exitDy=5;exitPerimeter=0;" edge="1" parent="1" source="4hDJxOOecdKZWFw1wwlg-6" target="4hDJxOOecdKZWFw1wwlg-2">
          <mxGeometry width="80" relative="1" as="geometry">
            <mxPoint x="40" y="1370" as="sourcePoint" />
            <mxPoint x="160" y="1370" as="targetPoint" />
            <mxPoint as="offset" />
          </mxGeometry>
        </mxCell>
        <mxCell id="4hDJxOOecdKZWFw1wwlg-24" value="MinioServerr" style="shape=umlLifeline;perimeter=lifelinePerimeter;whiteSpace=wrap;html=1;container=1;dropTarget=0;collapsible=0;recursiveResize=0;outlineConnect=0;portConstraint=eastwest;newEdgeStyle={&quot;curved&quot;:0,&quot;rounded&quot;:0};" vertex="1" parent="1">
          <mxGeometry x="840" y="1290" width="140" height="2140" as="geometry" />
        </mxCell>
        <mxCell id="4hDJxOOecdKZWFw1wwlg-25" value="RedisKeyUtil" style="shape=umlLifeline;perimeter=lifelinePerimeter;whiteSpace=wrap;html=1;container=1;dropTarget=0;collapsible=0;recursiveResize=0;outlineConnect=0;portConstraint=eastwest;newEdgeStyle={&quot;curved&quot;:0,&quot;rounded&quot;:0};" vertex="1" parent="1">
          <mxGeometry x="1090" y="1287" width="140" height="2133" as="geometry" />
        </mxCell>
        <mxCell id="xmHJdQfIzjYju88yCJje-1" value="保存上传信息&lt;br style=&quot;border-color: var(--border-color);&quot;&gt;SaveUploadInfo（）" style="html=1;verticalAlign=bottom;endArrow=block;curved=0;rounded=0;" edge="1" parent="1">
          <mxGeometry width="80" relative="1" as="geometry">
            <mxPoint x="195" y="1395" as="sourcePoint" />
            <mxPoint x="435" y="1395" as="targetPoint" />
          </mxGeometry>
        </mxCell>
        <mxCell id="_tNlu6o5Yy0VGSef8QK5-1" value="alt" style="shape=umlFrame;whiteSpace=wrap;html=1;pointerEvents=0;fillColor=#ffe6cc;strokeColor=#d79b00;" vertex="1" parent="1">
          <mxGeometry x="311" y="1420" width="930" height="830" as="geometry" />
        </mxCell>
        <mxCell id="uapX1rdkcnv8wk9V5b_s-1" value="保存目录信息" style="text;html=1;align=center;verticalAlign=middle;resizable=0;points=[];autosize=1;strokeColor=none;fillColor=none;" vertex="1" parent="1">
          <mxGeometry x="315" y="1457" width="100" height="30" as="geometry" />
        </mxCell>
        <mxCell id="YG0tXaLqZeOx-eGNu-de-1" value="" style="html=1;points=[[0,0,0,0,5],[0,1,0,0,-5],[1,0,0,0,5],[1,1,0,0,-5]];perimeter=orthogonalPerimeter;outlineConnect=0;targetShapes=umlLifeline;portConstraint=eastwest;newEdgeStyle={&quot;curved&quot;:0,&quot;rounded&quot;:0};" vertex="1" parent="1">
          <mxGeometry x="440" y="1450" width="10" height="640" as="geometry" />
        </mxCell>
        <mxCell id="YG0tXaLqZeOx-eGNu-de-2" value="保存识别到的目录和文件信息&lt;br&gt;ParseFolderInfo（）" style="html=1;align=left;spacingLeft=2;endArrow=block;rounded=0;edgeStyle=orthogonalEdgeStyle;curved=0;rounded=0;" edge="1" target="YG0tXaLqZeOx-eGNu-de-1" parent="1">
          <mxGeometry x="0.0118" relative="1" as="geometry">
            <mxPoint x="445" y="1430" as="sourcePoint" />
            <Array as="points">
              <mxPoint x="475" y="1460" />
            </Array>
            <mxPoint as="offset" />
          </mxGeometry>
        </mxCell>
        <mxCell id="YG0tXaLqZeOx-eGNu-de-3" style="edgeStyle=orthogonalEdgeStyle;rounded=0;orthogonalLoop=1;jettySize=auto;html=1;" edge="1" parent="1">
          <mxGeometry relative="1" as="geometry">
            <mxPoint x="1241" y="1828" as="sourcePoint" />
            <mxPoint x="1241" y="1848" as="targetPoint" />
          </mxGeometry>
        </mxCell>
        <mxCell id="-5QH3vMNE3TJg9Ul0uYv-2" value="文件" style="text;html=1;align=center;verticalAlign=middle;resizable=0;points=[];autosize=1;strokeColor=none;fillColor=none;" vertex="1" parent="1">
          <mxGeometry x="344" y="1541" width="50" height="30" as="geometry" />
        </mxCell>
        <mxCell id="-5QH3vMNE3TJg9Ul0uYv-7" value="alt" style="shape=umlFrame;whiteSpace=wrap;html=1;pointerEvents=0;fillColor=#ffe6cc;strokeColor=#d79b00;" vertex="1" parent="1">
          <mxGeometry x="330" y="1508" width="900" height="702" as="geometry" />
        </mxCell>
        <mxCell id="uzSbzyd-iRPZXRD69FWV-1" value="alt" style="shape=umlFrame;whiteSpace=wrap;html=1;pointerEvents=0;fillColor=#ffe6cc;strokeColor=#d79b00;" vertex="1" parent="1">
          <mxGeometry x="344" y="1773" width="866" height="172" as="geometry" />
        </mxCell>
        <mxCell id="uzSbzyd-iRPZXRD69FWV-2" value="大文件" style="text;html=1;align=center;verticalAlign=middle;resizable=0;points=[];autosize=1;strokeColor=none;fillColor=none;" vertex="1" parent="1">
          <mxGeometry x="349" y="1823" width="60" height="30" as="geometry" />
        </mxCell>
        <mxCell id="uzSbzyd-iRPZXRD69FWV-3" value="alt" style="shape=umlFrame;whiteSpace=wrap;html=1;pointerEvents=0;fillColor=#ffe6cc;strokeColor=#d79b00;" vertex="1" parent="1">
          <mxGeometry x="344" y="1962" width="876" height="112" as="geometry" />
        </mxCell>
        <mxCell id="uzSbzyd-iRPZXRD69FWV-4" value="小文件" style="text;html=1;align=center;verticalAlign=middle;resizable=0;points=[];autosize=1;strokeColor=none;fillColor=none;" vertex="1" parent="1">
          <mxGeometry x="355" y="2009" width="60" height="30" as="geometry" />
        </mxCell>
        <mxCell id="uzSbzyd-iRPZXRD69FWV-5" value="" style="html=1;points=[[0,0,0,0,5],[0,1,0,0,-5],[1,0,0,0,5],[1,1,0,0,-5]];perimeter=orthogonalPerimeter;outlineConnect=0;targetShapes=umlLifeline;portConstraint=eastwest;newEdgeStyle={&quot;curved&quot;:0,&quot;rounded&quot;:0};" vertex="1" parent="1">
          <mxGeometry x="905" y="1794" width="10" height="68" as="geometry" />
        </mxCell>
        <mxCell id="uzSbzyd-iRPZXRD69FWV-6" value="申请文件块上传信息&lt;br&gt;RequestChunkUploadUrl()" style="html=1;verticalAlign=bottom;endArrow=block;curved=0;rounded=0;entryX=0;entryY=0;entryDx=0;entryDy=5;" edge="1" parent="1" source="ijrxdC7IUcDOOv6l4YaE-18">
          <mxGeometry relative="1" as="geometry">
            <mxPoint x="455" y="1809" as="sourcePoint" />
            <mxPoint x="905" y="1809" as="targetPoint" />
            <mxPoint as="offset" />
          </mxGeometry>
        </mxCell>
        <mxCell id="uzSbzyd-iRPZXRD69FWV-7" value="return" style="html=1;verticalAlign=bottom;endArrow=open;dashed=1;endSize=8;curved=0;rounded=0;exitX=0;exitY=1;exitDx=0;exitDy=-5;" edge="1" source="uzSbzyd-iRPZXRD69FWV-5" parent="1" target="ijrxdC7IUcDOOv6l4YaE-18">
          <mxGeometry relative="1" as="geometry">
            <mxPoint x="835" y="1858" as="targetPoint" />
          </mxGeometry>
        </mxCell>
        <mxCell id="uzSbzyd-iRPZXRD69FWV-8" value="" style="html=1;points=[[0,0,0,0,5],[0,1,0,0,-5],[1,0,0,0,5],[1,1,0,0,-5]];perimeter=orthogonalPerimeter;outlineConnect=0;targetShapes=umlLifeline;portConstraint=eastwest;newEdgeStyle={&quot;curved&quot;:0,&quot;rounded&quot;:0};" vertex="1" parent="1">
          <mxGeometry x="445" y="1508" width="10" height="392" as="geometry" />
        </mxCell>
        <mxCell id="uzSbzyd-iRPZXRD69FWV-9" value="解析目录下的文件&lt;br&gt;ParseFileInfo()" style="html=1;align=left;spacingLeft=2;endArrow=block;rounded=0;edgeStyle=orthogonalEdgeStyle;curved=0;rounded=0;" edge="1" target="uzSbzyd-iRPZXRD69FWV-8" parent="1">
          <mxGeometry x="0.0118" relative="1" as="geometry">
            <mxPoint x="450" y="1488" as="sourcePoint" />
            <Array as="points">
              <mxPoint x="480" y="1518" />
            </Array>
            <mxPoint as="offset" />
          </mxGeometry>
        </mxCell>
        <mxCell id="wdkEg6WzORd9bW3VttyS-4" value="" style="html=1;points=[[0,0,0,0,5],[0,1,0,0,-5],[1,0,0,0,5],[1,1,0,0,-5]];perimeter=orthogonalPerimeter;outlineConnect=0;targetShapes=umlLifeline;portConstraint=eastwest;newEdgeStyle={&quot;curved&quot;:0,&quot;rounded&quot;:0};" vertex="1" parent="1">
          <mxGeometry x="655" y="1885" width="10" height="50" as="geometry" />
        </mxCell>
        <mxCell id="wdkEg6WzORd9bW3VttyS-5" value="新增文件信息&lt;br&gt;InsertFileInfo()" style="html=1;verticalAlign=bottom;endArrow=block;curved=0;rounded=0;entryX=0;entryY=0;entryDx=0;entryDy=5;" edge="1" target="wdkEg6WzORd9bW3VttyS-4" parent="1" source="ijrxdC7IUcDOOv6l4YaE-18">
          <mxGeometry relative="1" as="geometry">
            <mxPoint x="585" y="1880" as="sourcePoint" />
          </mxGeometry>
        </mxCell>
        <mxCell id="wdkEg6WzORd9bW3VttyS-6" value="return" style="html=1;verticalAlign=bottom;endArrow=open;dashed=1;endSize=8;curved=0;rounded=0;exitX=0;exitY=1;exitDx=0;exitDy=-5;" edge="1" source="wdkEg6WzORd9bW3VttyS-4" parent="1" target="ijrxdC7IUcDOOv6l4YaE-18">
          <mxGeometry relative="1" as="geometry">
            <mxPoint x="585" y="1950" as="targetPoint" />
          </mxGeometry>
        </mxCell>
        <mxCell id="wdkEg6WzORd9bW3VttyS-7" value="" style="html=1;points=[[0,0,0,0,5],[0,1,0,0,-5],[1,0,0,0,5],[1,1,0,0,-5]];perimeter=orthogonalPerimeter;outlineConnect=0;targetShapes=umlLifeline;portConstraint=eastwest;newEdgeStyle={&quot;curved&quot;:0,&quot;rounded&quot;:0};" vertex="1" parent="1">
          <mxGeometry x="905" y="1984" width="10" height="80" as="geometry" />
        </mxCell>
        <mxCell id="wdkEg6WzORd9bW3VttyS-8" value="申请文件上传信息&lt;br style=&quot;border-color: var(--border-color);&quot;&gt;RequestUploadUrl()" style="html=1;verticalAlign=bottom;endArrow=block;curved=0;rounded=0;entryX=0;entryY=0;entryDx=0;entryDy=5;" edge="1" parent="1">
          <mxGeometry relative="1" as="geometry">
            <mxPoint x="455" y="1994" as="sourcePoint" />
            <mxPoint x="905" y="1994" as="targetPoint" />
            <mxPoint as="offset" />
          </mxGeometry>
        </mxCell>
        <mxCell id="wdkEg6WzORd9bW3VttyS-9" value="return&amp;nbsp; 文件上传Url" style="html=1;verticalAlign=bottom;endArrow=open;dashed=1;endSize=8;curved=0;rounded=0;exitX=0;exitY=1;exitDx=0;exitDy=-5;" edge="1" source="wdkEg6WzORd9bW3VttyS-7" parent="1" target="YG0tXaLqZeOx-eGNu-de-1">
          <mxGeometry relative="1" as="geometry">
            <mxPoint x="455" y="2059" as="targetPoint" />
          </mxGeometry>
        </mxCell>
        <mxCell id="wdkEg6WzORd9bW3VttyS-10" value="" style="html=1;points=[[0,0,0,0,5],[0,1,0,0,-5],[1,0,0,0,5],[1,1,0,0,-5]];perimeter=orthogonalPerimeter;outlineConnect=0;targetShapes=umlLifeline;portConstraint=eastwest;newEdgeStyle={&quot;curved&quot;:0,&quot;rounded&quot;:0};" vertex="1" parent="1">
          <mxGeometry x="655" y="2105" width="10" height="80" as="geometry" />
        </mxCell>
        <mxCell id="wdkEg6WzORd9bW3VttyS-11" value="新增文件信息&lt;br style=&quot;border-color: var(--border-color);&quot;&gt;InsertFileInfo()" style="html=1;verticalAlign=bottom;endArrow=block;curved=0;rounded=0;entryX=0;entryY=0;entryDx=0;entryDy=5;" edge="1" target="wdkEg6WzORd9bW3VttyS-10" parent="1">
          <mxGeometry x="0.0049" relative="1" as="geometry">
            <mxPoint x="450" y="2110" as="sourcePoint" />
            <mxPoint as="offset" />
          </mxGeometry>
        </mxCell>
        <mxCell id="wdkEg6WzORd9bW3VttyS-12" value="return" style="html=1;verticalAlign=bottom;endArrow=open;dashed=1;endSize=8;curved=0;rounded=0;exitX=0;exitY=1;exitDx=0;exitDy=-5;entryX=1;entryY=1;entryDx=0;entryDy=-5;entryPerimeter=0;" edge="1" source="wdkEg6WzORd9bW3VttyS-10" parent="1">
          <mxGeometry relative="1" as="geometry">
            <mxPoint x="450" y="2180" as="targetPoint" />
          </mxGeometry>
        </mxCell>
        <mxCell id="8t74OTzsmhq8ee53T4Yi-3" value="alt" style="shape=umlFrame;whiteSpace=wrap;html=1;pointerEvents=0;fillColor=#ffe6cc;strokeColor=#d79b00;" vertex="1" parent="1">
          <mxGeometry x="309" y="2297" width="930" height="590" as="geometry" />
        </mxCell>
        <mxCell id="mIbtDZ1oQkNrug391mB1-1" value="文件上传&lt;br&gt;信息" style="text;html=1;align=center;verticalAlign=middle;resizable=0;points=[];autosize=1;strokeColor=none;fillColor=none;" vertex="1" parent="1">
          <mxGeometry x="324" y="2333" width="70" height="40" as="geometry" />
        </mxCell>
        <mxCell id="ijrxdC7IUcDOOv6l4YaE-8" value="alt" style="shape=umlFrame;whiteSpace=wrap;html=1;pointerEvents=0;fillColor=#ffe6cc;strokeColor=#d79b00;" vertex="1" parent="1">
          <mxGeometry x="319" y="2377" width="901" height="340" as="geometry" />
        </mxCell>
        <mxCell id="ijrxdC7IUcDOOv6l4YaE-9" value="大文件" style="text;html=1;align=center;verticalAlign=middle;resizable=0;points=[];autosize=1;strokeColor=none;fillColor=none;" vertex="1" parent="1">
          <mxGeometry x="344" y="2437" width="60" height="30" as="geometry" />
        </mxCell>
        <mxCell id="ijrxdC7IUcDOOv6l4YaE-10" value="" style="html=1;points=[[0,0,0,0,5],[0,1,0,0,-5],[1,0,0,0,5],[1,1,0,0,-5]];perimeter=orthogonalPerimeter;outlineConnect=0;targetShapes=umlLifeline;portConstraint=eastwest;newEdgeStyle={&quot;curved&quot;:0,&quot;rounded&quot;:0};" vertex="1" parent="1">
          <mxGeometry x="655" y="2405" width="10" height="80" as="geometry" />
        </mxCell>
        <mxCell id="ijrxdC7IUcDOOv6l4YaE-11" value="获取文件切片信息&lt;br&gt;GetFileChunk()" style="html=1;verticalAlign=bottom;endArrow=block;curved=0;rounded=0;entryX=0;entryY=0;entryDx=0;entryDy=5;" edge="1" target="ijrxdC7IUcDOOv6l4YaE-10" parent="1" source="ijrxdC7IUcDOOv6l4YaE-5">
          <mxGeometry relative="1" as="geometry">
            <mxPoint x="585" y="2440" as="sourcePoint" />
          </mxGeometry>
        </mxCell>
        <mxCell id="ijrxdC7IUcDOOv6l4YaE-12" value="return" style="html=1;verticalAlign=bottom;endArrow=open;dashed=1;endSize=8;curved=0;rounded=0;exitX=0;exitY=1;exitDx=0;exitDy=-5;" edge="1" source="ijrxdC7IUcDOOv6l4YaE-10" parent="1" target="ijrxdC7IUcDOOv6l4YaE-5">
          <mxGeometry relative="1" as="geometry">
            <mxPoint x="585" y="2510" as="targetPoint" />
          </mxGeometry>
        </mxCell>
        <mxCell id="ijrxdC7IUcDOOv6l4YaE-16" value="alt" style="shape=umlFrame;whiteSpace=wrap;html=1;pointerEvents=0;fillColor=#ffe6cc;strokeColor=#d79b00;" vertex="1" parent="1">
          <mxGeometry x="326.5" y="2517" width="873.5" height="170" as="geometry" />
        </mxCell>
        <mxCell id="ijrxdC7IUcDOOv6l4YaE-17" value="大文件所有&lt;br&gt;切片文件上传完成" style="text;html=1;align=center;verticalAlign=middle;resizable=0;points=[];autosize=1;strokeColor=none;fillColor=none;" vertex="1" parent="1">
          <mxGeometry x="319" y="2577" width="120" height="40" as="geometry" />
        </mxCell>
        <mxCell id="ijrxdC7IUcDOOv6l4YaE-18" value="" style="html=1;points=[[0,0,0,0,5],[0,1,0,0,-5],[1,0,0,0,5],[1,1,0,0,-5]];perimeter=orthogonalPerimeter;outlineConnect=0;targetShapes=umlLifeline;portConstraint=eastwest;newEdgeStyle={&quot;curved&quot;:0,&quot;rounded&quot;:0};" vertex="1" parent="1">
          <mxGeometry x="450" y="1776" width="10" height="169" as="geometry" />
        </mxCell>
        <mxCell id="ijrxdC7IUcDOOv6l4YaE-19" value="解析大文件&lt;br&gt;ParseBigFileInfo()" style="html=1;align=left;spacingLeft=2;endArrow=block;rounded=0;edgeStyle=orthogonalEdgeStyle;curved=0;rounded=0;" edge="1" target="ijrxdC7IUcDOOv6l4YaE-18" parent="1">
          <mxGeometry relative="1" as="geometry">
            <mxPoint x="455" y="1756" as="sourcePoint" />
            <Array as="points">
              <mxPoint x="485" y="1786" />
            </Array>
          </mxGeometry>
        </mxCell>
        <mxCell id="ijrxdC7IUcDOOv6l4YaE-20" value="" style="html=1;points=[[0,0,0,0,5],[0,1,0,0,-5],[1,0,0,0,5],[1,1,0,0,-5]];perimeter=orthogonalPerimeter;outlineConnect=0;targetShapes=umlLifeline;portConstraint=eastwest;newEdgeStyle={&quot;curved&quot;:0,&quot;rounded&quot;:0};" vertex="1" parent="1">
          <mxGeometry x="655" y="2557" width="10" height="60" as="geometry" />
        </mxCell>
        <mxCell id="ijrxdC7IUcDOOv6l4YaE-21" value="更新文件状态&lt;br style=&quot;border-color: var(--border-color);&quot;&gt;UpdateFileStatus()" style="html=1;verticalAlign=bottom;endArrow=block;curved=0;rounded=0;entryX=0;entryY=0;entryDx=0;entryDy=5;" edge="1" target="ijrxdC7IUcDOOv6l4YaE-20" parent="1" source="ijrxdC7IUcDOOv6l4YaE-5">
          <mxGeometry relative="1" as="geometry">
            <mxPoint x="585" y="2532" as="sourcePoint" />
          </mxGeometry>
        </mxCell>
        <mxCell id="ijrxdC7IUcDOOv6l4YaE-22" value="return" style="html=1;verticalAlign=bottom;endArrow=open;dashed=1;endSize=8;curved=0;rounded=0;exitX=0;exitY=1;exitDx=0;exitDy=-5;" edge="1" source="ijrxdC7IUcDOOv6l4YaE-20" parent="1" target="ijrxdC7IUcDOOv6l4YaE-5">
          <mxGeometry relative="1" as="geometry">
            <mxPoint x="585" y="2602" as="targetPoint" />
          </mxGeometry>
        </mxCell>
        <mxCell id="ijrxdC7IUcDOOv6l4YaE-23" value="alt" style="shape=umlFrame;whiteSpace=wrap;html=1;pointerEvents=0;fillColor=#ffe6cc;strokeColor=#d79b00;" vertex="1" parent="1">
          <mxGeometry x="307.5" y="2909" width="930" height="81" as="geometry" />
        </mxCell>
        <mxCell id="ijrxdC7IUcDOOv6l4YaE-25" value="更新文件Hash信息" style="text;html=1;align=center;verticalAlign=middle;resizable=0;points=[];autosize=1;strokeColor=none;fillColor=none;" vertex="1" parent="1">
          <mxGeometry x="304" y="2954" width="120" height="30" as="geometry" />
        </mxCell>
        <mxCell id="ijrxdC7IUcDOOv6l4YaE-42" value="return" style="html=1;verticalAlign=bottom;endArrow=open;dashed=1;endSize=8;curved=0;rounded=0;" edge="1" parent="1">
          <mxGeometry relative="1" as="geometry">
            <mxPoint x="435" y="3109" as="sourcePoint" />
            <mxPoint x="189.5" y="3109" as="targetPoint" />
          </mxGeometry>
        </mxCell>
        <mxCell id="ijrxdC7IUcDOOv6l4YaE-43" value="" style="html=1;points=[[0,0,0,0,5],[0,1,0,0,-5],[1,0,0,0,5],[1,1,0,0,-5]];perimeter=orthogonalPerimeter;outlineConnect=0;targetShapes=umlLifeline;portConstraint=eastwest;newEdgeStyle={&quot;curved&quot;:0,&quot;rounded&quot;:0};" vertex="1" parent="1">
          <mxGeometry x="655" y="2751" width="10" height="80" as="geometry" />
        </mxCell>
        <mxCell id="ijrxdC7IUcDOOv6l4YaE-44" value="更新相同文件的Hash&lt;br&gt;UpdateByFIleHash()" style="html=1;verticalAlign=bottom;endArrow=block;curved=0;rounded=0;entryX=0;entryY=0;entryDx=0;entryDy=5;" edge="1" target="ijrxdC7IUcDOOv6l4YaE-43" parent="1">
          <mxGeometry relative="1" as="geometry">
            <mxPoint x="445" y="2756" as="sourcePoint" />
          </mxGeometry>
        </mxCell>
        <mxCell id="ijrxdC7IUcDOOv6l4YaE-45" value="return" style="html=1;verticalAlign=bottom;endArrow=open;dashed=1;endSize=8;curved=0;rounded=0;exitX=0;exitY=1;exitDx=0;exitDy=-5;" edge="1" source="ijrxdC7IUcDOOv6l4YaE-43" parent="1">
          <mxGeometry relative="1" as="geometry">
            <mxPoint x="445" y="2826" as="targetPoint" />
          </mxGeometry>
        </mxCell>
        <mxCell id="ijrxdC7IUcDOOv6l4YaE-46" value="alt" style="shape=umlFrame;whiteSpace=wrap;html=1;pointerEvents=0;fillColor=#ffe6cc;strokeColor=#d79b00;" vertex="1" parent="1">
          <mxGeometry x="324" y="2727" width="896" height="150" as="geometry" />
        </mxCell>
        <mxCell id="ijrxdC7IUcDOOv6l4YaE-47" value="大文件上传完成&lt;br&gt;或小文件" style="text;html=1;align=center;verticalAlign=middle;resizable=0;points=[];autosize=1;strokeColor=none;fillColor=none;" vertex="1" parent="1">
          <mxGeometry x="314" y="2772" width="110" height="40" as="geometry" />
        </mxCell>
        <mxCell id="ijrxdC7IUcDOOv6l4YaE-48" value="移除文件上传状态Key&lt;br style=&quot;border-color: var(--border-color);&quot;&gt;RemoveUploadingKey()" style="html=1;verticalAlign=bottom;endArrow=block;curved=0;rounded=0;exitX=1;exitY=0.878;exitDx=0;exitDy=0;exitPerimeter=0;" edge="1" parent="1" source="ijrxdC7IUcDOOv6l4YaE-5" target="ijrxdC7IUcDOOv6l4YaE-49">
          <mxGeometry width="80" relative="1" as="geometry">
            <mxPoint x="520" y="2657" as="sourcePoint" />
            <mxPoint x="600" y="2657" as="targetPoint" />
          </mxGeometry>
        </mxCell>
        <mxCell id="ijrxdC7IUcDOOv6l4YaE-49" value="" style="html=1;points=[[0,0,0,0,5],[0,1,0,0,-5],[1,0,0,0,5],[1,1,0,0,-5]];perimeter=orthogonalPerimeter;outlineConnect=0;targetShapes=umlLifeline;portConstraint=eastwest;newEdgeStyle={&quot;curved&quot;:0,&quot;rounded&quot;:0};" vertex="1" parent="1">
          <mxGeometry x="1155" y="2607" width="10" height="80" as="geometry" />
        </mxCell>
        <mxCell id="wdkEg6WzORd9bW3VttyS-15" value="return" style="html=1;verticalAlign=bottom;endArrow=open;dashed=1;endSize=8;curved=0;rounded=0;exitX=0;exitY=1;exitDx=0;exitDy=-5;entryX=0.5;entryY=0.947;entryDx=0;entryDy=0;entryPerimeter=0;" edge="1" source="wdkEg6WzORd9bW3VttyS-13" parent="1">
          <mxGeometry relative="1" as="geometry">
            <mxPoint x="440" y="3084.1099999999997" as="targetPoint" />
          </mxGeometry>
        </mxCell>
        <mxCell id="ijrxdC7IUcDOOv6l4YaE-51" value="检查文件Hash是否上传过&lt;br&gt;CheckFileHash()" style="html=1;verticalAlign=bottom;endArrow=block;curved=0;rounded=0;entryX=0;entryY=0;entryDx=0;entryDy=5;" edge="1" target="ijrxdC7IUcDOOv6l4YaE-50" parent="1" source="uzSbzyd-iRPZXRD69FWV-8">
          <mxGeometry relative="1" as="geometry">
            <mxPoint x="490" y="1560" as="sourcePoint" />
          </mxGeometry>
        </mxCell>
        <mxCell id="ijrxdC7IUcDOOv6l4YaE-52" value="return" style="html=1;verticalAlign=bottom;endArrow=open;dashed=1;endSize=8;curved=0;rounded=0;exitX=0;exitY=1;exitDx=0;exitDy=-5;" edge="1" source="ijrxdC7IUcDOOv6l4YaE-50" parent="1" target="uzSbzyd-iRPZXRD69FWV-8">
          <mxGeometry relative="1" as="geometry">
            <mxPoint x="585" y="1635.86" as="targetPoint" />
          </mxGeometry>
        </mxCell>
        <mxCell id="ijrxdC7IUcDOOv6l4YaE-53" value="alt" style="shape=umlFrame;whiteSpace=wrap;html=1;pointerEvents=0;fillColor=#ffe6cc;strokeColor=#d79b00;" vertex="1" parent="1">
          <mxGeometry x="344" y="1618" width="866" height="122" as="geometry" />
        </mxCell>
        <mxCell id="ijrxdC7IUcDOOv6l4YaE-57" value="文件已上传" style="text;html=1;align=center;verticalAlign=middle;resizable=0;points=[];autosize=1;strokeColor=none;fillColor=none;" vertex="1" parent="1">
          <mxGeometry x="349" y="1660" width="80" height="30" as="geometry" />
        </mxCell>
        <mxCell id="ijrxdC7IUcDOOv6l4YaE-58" value="跳出循环，更新文件状态" style="html=1;verticalAlign=bottom;endArrow=open;dashed=1;endSize=8;curved=0;rounded=0;" edge="1" parent="1">
          <mxGeometry relative="1" as="geometry">
            <mxPoint x="430" y="1704" as="sourcePoint" />
            <mxPoint x="290" y="1704" as="targetPoint" />
            <mxPoint as="offset" />
          </mxGeometry>
        </mxCell>
      </root>
    </mxGraphModel>
  </diagram>
</mxfile>
